# Blender 4.2.16 LTS
# www.blender.org
o 평면.042
v -0.679397 0.384572 1.152178
v 0.692419 0.384572 1.152178
v -0.679397 0.307150 1.249983
v 0.692419 0.307150 1.249983
v -0.679397 0.383231 1.238286
v -0.679397 0.378510 1.244582
v -0.679397 0.381300 1.241396
v 0.692419 0.378510 1.244582
v 0.692419 0.383231 1.238287
v 0.692419 0.381300 1.241396
v -0.679397 0.383924 1.234803
v 0.692419 0.383924 1.234803
v -0.679397 0.367008 1.249458
v 0.692419 0.367008 1.249458
v -0.679397 0.387072 1.152193
v 0.692419 0.387072 1.152193
v 0.692419 0.307253 1.252481
v -0.679397 0.307253 1.252481
v 0.692419 0.380278 1.246350
v -0.679397 0.380278 1.246350
v 0.692419 0.385556 1.239205
v 0.692419 0.383402 1.242750
v -0.679397 0.383402 1.242750
v -0.679397 0.385556 1.239205
v -0.679397 0.386411 1.235055
v 0.692419 0.386411 1.235055
v -0.679397 0.367783 1.251835
v 0.692419 0.367783 1.251835
v -0.679397 0.373176 1.247882
v 0.692419 0.373176 1.247882
v -0.679397 0.374447 1.249954
v 0.692419 0.374447 1.249954
vn -0.0000 0.0088 1.0000
vn -0.0000 0.8496 0.5275
vn -0.0000 0.9808 0.1951
vn -0.0000 0.7523 0.6588
vn -0.0000 1.0000 0.0078
vn -0.0000 0.2475 0.9689
vn -0.0000 -0.0107 -0.9999
vn -0.0000 -0.8546 -0.5193
vn -0.0000 -0.9794 -0.2018
vn -0.0000 -0.7553 -0.6554
vn -0.0000 -1.0000 -0.0080
vn -0.0000 -0.2716 -0.9624
vn 1.0000 -0.0000 -0.0000
vn -0.0000 -0.0058 1.0000
vn -0.0000 0.9992 -0.0411
vn -1.0000 -0.0000 -0.0000
vn -0.0000 -0.5258 -0.8506
vn -0.0000 0.5261 0.8504
vt 0.000000 0.569076
vt 0.000000 1.000000
vt 1.000000 1.000000
vt 1.000000 0.569076
vt 0.000000 0.489817
vt 1.000000 0.489817
vt 1.000000 0.456416
vt 0.000000 0.456416
vt 0.000000 0.442158
vt 1.000000 0.442158
vt 0.000000 0.542793
vt 1.000000 0.542793
vt 0.000000 0.000000
vt 1.000000 0.000000
vt 0.000000 0.555934
vt 1.000000 0.555934
s 0
f 13/1/1 3/2/1 4/3/1 14/4/1
f 7/5/2 10/6/2 9/7/2 5/8/2
f 11/9/3 5/8/3 9/7/3 12/10/3
f 6/11/4 8/12/4 10/6/4 7/5/4
f 1/13/5 11/9/5 12/10/5 2/14/5
f 29/15/6 13/1/6 14/4/6 30/16/6
f 27/1/7 28/4/7 17/3/7 18/2/7
f 23/5/8 24/8/8 21/7/8 22/6/8
f 25/9/9 26/10/9 21/7/9 24/8/9
f 20/11/10 23/5/10 22/6/10 19/12/10
f 15/13/11 16/14/11 26/10/11 25/9/11
f 31/15/12 32/16/12 28/4/12 27/1/12
f 7/5/13 5/8/13 24/8/13 23/5/13
f 1/13/14 2/14/14 16/14/14 15/13/14
f 4/3/15 3/2/15 18/2/15 17/3/15
f 3/2/13 13/1/13 27/1/13 18/2/13
f 11/9/13 1/13/13 15/13/13 25/9/13
f 30/16/16 14/4/16 28/4/16 32/16/16
f 12/10/16 9/7/16 21/7/16 26/10/16
f 9/7/16 10/6/16 22/6/16 21/7/16
f 29/15/13 6/11/13 20/11/13 31/15/13
f 6/11/13 7/5/13 23/5/13 20/11/13
f 14/4/16 4/3/16 17/3/16 28/4/16
f 5/8/13 11/9/13 25/9/13 24/8/13
f 10/6/16 8/12/16 19/12/16 22/6/16
f 2/14/16 12/10/16 26/10/16 16/14/16
f 13/1/13 29/15/13 31/15/13 27/1/13
f 8/12/16 30/16/16 32/16/16 19/12/16
f 20/11/17 19/12/17 32/16/17 31/15/17
f 6/11/18 29/15/18 30/16/18 8/12/18
o 평면.043
v -0.679397 -0.384572 -1.152178
v 0.692419 -0.384572 -1.152178
v -0.679397 -0.307150 -1.249983
v 0.692419 -0.307150 -1.249983
v -0.679397 -0.383231 -1.238286
v -0.679397 -0.378510 -1.244582
v -0.679397 -0.381300 -1.241396
v 0.692419 -0.378510 -1.244582
v 0.692419 -0.383231 -1.238287
v 0.692419 -0.381300 -1.241396
v -0.679397 -0.383924 -1.234803
v 0.692419 -0.383924 -1.234803
v -0.679397 -0.367008 -1.249458
v 0.692419 -0.367008 -1.249458
v -0.679397 -0.387072 -1.152193
v 0.692419 -0.387072 -1.152193
v 0.692419 -0.307253 -1.252481
v -0.679397 -0.307253 -1.252481
v 0.692419 -0.380278 -1.246350
v -0.679397 -0.380278 -1.246350
v 0.692419 -0.385556 -1.239205
v 0.692419 -0.383402 -1.242750
v -0.679397 -0.383402 -1.242750
v -0.679397 -0.385556 -1.239205
v -0.679397 -0.386411 -1.235055
v 0.692419 -0.386411 -1.235055
v -0.679397 -0.367783 -1.251835
v 0.692419 -0.367783 -1.251835
v -0.679397 -0.373176 -1.247882
v 0.692419 -0.373176 -1.247882
v -0.679397 -0.374447 -1.249954
v 0.692419 -0.374447 -1.249954
vn -0.0000 -0.0088 -1.0000
vn -0.0000 -0.8496 -0.5275
vn -0.0000 -0.9808 -0.1951
vn -0.0000 -0.7523 -0.6588
vn -0.0000 -1.0000 -0.0078
vn -0.0000 -0.2475 -0.9689
vn -0.0000 0.0107 0.9999
vn -0.0000 0.8546 0.5193
vn -0.0000 0.9794 0.2018
vn -0.0000 0.7553 0.6554
vn -0.0000 1.0000 0.0080
vn -0.0000 0.2716 0.9624
vn 1.0000 -0.0000 -0.0000
vn -0.0000 0.0058 -1.0000
vn -0.0000 -0.9992 0.0411
vn -1.0000 -0.0000 -0.0000
vn -0.0000 0.5258 0.8506
vn -0.0000 -0.5261 -0.8504
vt 0.000000 0.569076
vt 0.000000 1.000000
vt 1.000000 1.000000
vt 1.000000 0.569076
vt 0.000000 0.489817
vt 1.000000 0.489817
vt 1.000000 0.456416
vt 0.000000 0.456416
vt 0.000000 0.442158
vt 1.000000 0.442158
vt 0.000000 0.542793
vt 1.000000 0.542793
vt 0.000000 0.000000
vt 1.000000 0.000000
vt 0.000000 0.555934
vt 1.000000 0.555934
s 0
f 45/17/19 35/18/19 36/19/19 46/20/19
f 39/21/20 42/22/20 41/23/20 37/24/20
f 43/25/21 37/24/21 41/23/21 44/26/21
f 38/27/22 40/28/22 42/22/22 39/21/22
f 33/29/23 43/25/23 44/26/23 34/30/23
f 61/31/24 45/17/24 46/20/24 62/32/24
f 59/17/25 60/20/25 49/19/25 50/18/25
f 55/21/26 56/24/26 53/23/26 54/22/26
f 57/25/27 58/26/27 53/23/27 56/24/27
f 52/27/28 55/21/28 54/22/28 51/28/28
f 47/29/29 48/30/29 58/26/29 57/25/29
f 63/31/30 64/32/30 60/20/30 59/17/30
f 39/21/31 37/24/31 56/24/31 55/21/31
f 33/29/32 34/30/32 48/30/32 47/29/32
f 36/19/33 35/18/33 50/18/33 49/19/33
f 35/18/31 45/17/31 59/17/31 50/18/31
f 43/25/31 33/29/31 47/29/31 57/25/31
f 62/32/34 46/20/34 60/20/34 64/32/34
f 44/26/34 41/23/34 53/23/34 58/26/34
f 41/23/34 42/22/34 54/22/34 53/23/34
f 61/31/31 38/27/31 52/27/31 63/31/31
f 38/27/31 39/21/31 55/21/31 52/27/31
f 46/20/34 36/19/34 49/19/34 60/20/34
f 37/24/31 43/25/31 57/25/31 56/24/31
f 42/22/34 40/28/34 51/28/34 54/22/34
f 34/30/34 44/26/34 58/26/34 48/30/34
f 45/17/31 61/31/31 63/31/31 59/17/31
f 40/28/34 62/32/34 64/32/34 51/28/34
f 52/27/35 51/28/35 64/32/35 63/31/35
f 38/27/36 61/31/36 62/32/36 40/28/36
o tape_0.011
v -0.028365 -0.356874 1.249983
v 0.025124 -0.356874 1.249983
v -0.028365 -0.356108 -1.249982
v -0.028365 -0.373189 -1.248578
v -0.028365 -0.379286 -1.244409
v -0.028365 -0.383169 -1.238599
v -0.028365 -0.384572 -1.231542
v -0.028365 -0.384572 -1.214174
v -0.028365 -0.384572 1.231543
v -0.028366 -0.383169 1.238600
v -0.028366 -0.373189 1.248579
v 0.025124 -0.366133 1.249983
v 0.025124 -0.373189 1.248579
v 0.025124 -0.384572 1.231543
v 0.025124 -0.384572 -1.214174
v 0.025124 -0.384572 -1.231542
v 0.025124 -0.383168 -1.238599
v 0.025124 -0.379286 -1.244409
v 0.025124 -0.356108 -1.249982
v -0.028365 -0.368932 -1.249425
v -0.028365 -0.384572 -1.223860
v -0.028366 -0.379171 1.244582
v -0.028365 -0.366133 1.249983
v 0.025124 -0.379171 1.244582
v 0.025124 -0.383168 1.238600
v 0.025124 -0.384572 -1.223859
v 0.025124 -0.373189 -1.248578
v 0.025124 -0.368932 -1.249425
v -0.028365 -0.000693 1.249983
v 0.025124 -0.000693 1.249983
v -0.028366 -0.346080 1.249983
v 0.025124 -0.097833 1.249983
v 0.025124 -0.108626 1.249983
v 0.025124 -0.119420 1.249983
v 0.025124 -0.346080 1.249983
v -0.028365 -0.074699 -1.249982
v 0.025124 -0.074699 -1.249982
v 0.025124 -0.356874 1.252983
v -0.028365 -0.356108 -1.252982
v -0.028365 -0.369453 -1.252374
v -0.028365 -0.374240 -1.251423
v -0.028365 -0.381598 -1.246142
v -0.028365 -0.387404 -1.231856
v -0.028365 -0.387404 -1.223860
v -0.028365 -0.387404 -1.214174
v 0.025124 -0.387404 -1.214174
v 0.025124 -0.387404 -1.223859
v 0.025124 -0.387404 -1.231858
v 0.025124 -0.385821 -1.239822
v 0.025124 -0.356108 -1.252982
v -0.028366 -0.374243 1.251422
v -0.028365 -0.387404 1.231856
v -0.028365 -0.356874 1.252983
v -0.028365 -0.385819 -1.239825
v -0.028366 -0.385819 1.239826
v -0.028366 -0.381158 1.246802
v 0.025124 -0.387404 1.231856
v 0.025124 -0.381598 -1.246142
v 0.025124 -0.374252 -1.251418
v 0.025124 -0.366396 1.252983
v 0.025124 -0.369451 -1.252374
v 0.025124 -0.000693 1.252983
v -0.028365 -0.000693 1.252983
v 0.025124 -0.346080 1.252983
v -0.028366 -0.346080 1.252983
v 0.025124 -0.097833 1.252983
v 0.025124 -0.108626 1.252983
v 0.025124 -0.119420 1.252983
v -0.028365 -0.074699 -1.252982
v 0.025124 -0.074699 -1.252982
v -0.028365 -0.366396 1.252983
v 0.025124 -0.374243 1.251422
v 0.025124 -0.381158 1.246802
v 0.025124 -0.385819 1.239826
v 0.021945 0.345752 -1.249982
v 0.021945 0.366133 -1.249982
v 0.021945 0.373189 -1.248578
v 0.021945 0.384572 -1.231542
v 0.021945 0.384572 -1.214480
v 0.021945 0.383750 1.235675
v 0.021945 0.383168 1.238600
v 0.021945 0.373189 1.248580
v 0.021945 0.344804 1.249983
v -0.031544 0.344804 1.249983
v -0.031544 0.373189 1.248580
v -0.031544 0.383168 1.238600
v -0.031544 0.383750 1.235675
v -0.031544 0.384572 -1.214479
v -0.031544 0.384572 -1.231542
v -0.031544 0.373189 -1.248578
v -0.031544 0.366132 -1.249982
v -0.031544 0.345752 -1.249982
v 0.021945 0.356321 -1.249982
v 0.021945 0.379171 -1.244581
v 0.021945 0.383168 -1.238599
v 0.021945 0.384572 -1.199483
v 0.021945 0.384572 1.230051
v 0.021945 0.379171 1.244583
v 0.021945 0.366133 1.249983
v 0.021945 0.354933 1.249983
v -0.031544 0.354933 1.249983
v -0.031544 0.366132 1.249983
v -0.031544 0.379171 1.244583
v -0.031544 0.384572 1.230052
v -0.031544 0.384572 -1.199482
v -0.031544 0.383168 -1.238599
v -0.031544 0.379171 -1.244581
v -0.031544 0.356322 -1.249982
v 0.021945 0.098503 1.249983
v -0.031544 0.098503 1.249983
v 0.021945 0.005405 -1.249982
v -0.031544 0.005405 -1.249982
v 0.021945 0.345752 -1.252982
v 0.021945 0.356321 -1.252982
v 0.021945 0.366428 -1.252982
v 0.021945 0.374360 -1.251404
v 0.021945 0.381334 -1.246744
v 0.021945 0.385994 -1.239769
v 0.021945 0.387572 -1.231838
v 0.021945 0.387572 -1.214480
v 0.021945 0.387159 -1.199483
v 0.021945 0.387159 1.230269
v 0.021945 0.386708 1.236185
v 0.021945 0.385663 1.240267
v 0.021945 0.381666 1.246249
v 0.021945 0.373774 1.251522
v 0.021945 0.366428 1.252983
v 0.021945 0.354933 1.252983
v 0.021945 0.344804 1.252983
v -0.031544 0.344804 1.252983
v -0.031544 0.354933 1.252983
v -0.031544 0.366428 1.252983
v -0.031544 0.373774 1.251522
v -0.031544 0.381666 1.246249
v -0.031544 0.385663 1.240267
v -0.031544 0.386708 1.236185
v -0.031544 0.387159 1.230270
v -0.031544 0.387159 -1.199482
v -0.031544 0.387572 -1.214479
v -0.031544 0.387572 -1.231838
v -0.031544 0.385994 -1.239769
v -0.031544 0.381334 -1.246744
v -0.031544 0.374360 -1.251404
v -0.031544 0.366428 -1.252982
v -0.031544 0.356322 -1.252982
v -0.031544 0.345752 -1.252982
v 0.021945 0.098503 1.252983
v -0.031544 0.098503 1.252983
v 0.021945 0.005405 -1.252982
v -0.031544 0.005405 -1.252982
vn -0.0000 -0.0000 1.0000
vn -0.0000 -0.1951 0.9808
vn -0.0000 -0.5556 0.8315
vn -0.0000 -1.0000 -0.0000
vn -0.0000 -0.8315 0.5556
vn -0.0000 0.5832 0.8124
vn -0.0000 -0.1951 -0.9808
vn -0.0000 -0.0434 -0.9991
vn -0.0000 -0.8315 -0.5556
vn -0.0000 0.9808 0.1951
vn -0.0000 -0.9808 0.1951
vn -0.0000 -0.0000 -1.0000
vn -0.0000 0.1951 -0.9808
vn -0.0000 0.5556 -0.8315
vn -0.0000 1.0000 -0.0000
vn -0.0000 0.8315 -0.5556
vn -1.0000 -0.0000 -0.0000
vn -0.0000 0.1952 0.9808
vn -0.0000 0.0455 0.9990
vn -0.0000 0.8315 0.5555
vn -0.0000 0.9808 -0.1951
vn 1.0000 -0.0000 -0.0000
vn -0.0000 -0.5645 -0.8255
vn -0.0000 -0.9808 -0.1951
vn -0.0000 0.1951 0.9808
vn -0.0000 0.5556 0.8315
vn -0.0000 -0.9971 -0.0761
vn -0.0000 0.8315 0.5556
vn -0.0000 0.9895 0.1446
vn -0.0000 -0.5556 -0.8315
vn -0.0000 -0.9996 -0.0275
vn -0.0000 -0.9688 -0.2480
vt 1.000000 0.004950
vt 1.000000 0.000000
vt 0.000000 0.000000
vt 0.000000 0.004950
vt 0.000000 0.014851
vt 0.000000 0.019802
vt 1.000000 0.019802
vt 1.000000 0.014851
vt 0.000000 0.029703
vt 0.000000 0.039604
vt 1.000000 0.039604
vt 1.000000 0.029703
vt 0.000000 0.884285
vt 1.000000 0.884286
vt 1.000000 0.881188
vt 0.000000 0.881188
vt 0.000000 0.044554
vt 0.000000 0.049505
vt 1.000000 0.049505
vt 1.000000 0.044554
vt 1.000000 0.069307
vt 0.000000 0.069307
vt 0.000000 0.910891
vt 1.000000 0.910891
vt 1.000000 0.925743
vt 0.000000 0.925743
vt 0.000000 0.935644
vt 1.000000 0.935644
vt 1.000000 0.930693
vt 0.000000 0.930693
vt 0.000000 0.950495
vt 1.000000 0.950495
vt 0.000000 0.905941
vt 1.000000 0.905941
vt 0.000000 0.891089
vt 1.000000 0.891089
vt 1.000000 0.900990
vt 0.000000 0.900990
vt 1.000000 0.059406
vt 0.000000 0.059406
vt 0.000000 1.000000
vt 1.000000 1.000000
vt 1.000000 0.884263
vt 0.000000 0.884263
vt 0.000000 0.024752
vt 1.000000 0.024752
vt 0.000000 0.034653
vt 1.000000 0.034653
vt 0.000000 0.054455
vt 1.000000 0.054455
vt 1.000000 0.074257
vt 0.000000 0.074257
vt 1.000000 0.876238
vt 0.000000 0.876238
vt 0.000000 0.896040
vt 1.000000 0.896040
vt 1.000000 0.920792
vt 0.000000 0.920792
s 0
f 76/33/37 66/34/37 65/35/37 87/36/37
f 87/37/38 75/38/38 77/39/38 76/40/38
f 75/41/39 86/42/39 88/43/39 77/44/39
f 85/45/40 90/46/40 79/47/40 72/48/40
f 86/49/41 74/50/41 89/51/41 88/52/41
f 79/47/40 78/53/40 73/54/40 72/48/40
f 106/55/42 122/56/42 123/57/42 105/58/42
f 84/59/43 92/60/43 91/61/43 68/62/43
f 84/59/44 67/63/44 83/64/44 92/60/44
f 70/65/45 69/55/45 82/56/45 81/66/45
f 85/45/40 71/67/40 80/68/40 90/46/40
f 113/69/46 118/70/46 107/67/46 112/68/46
f 73/54/47 78/53/47 89/71/47 74/72/47
f 99/34/37 95/35/37 65/35/37 66/34/37
f 95/35/37 99/34/37 98/34/37 97/34/37 96/34/37 94/34/37 93/35/37
f 67/63/48 100/73/48 101/74/48 83/64/48
f 102/34/48 124/33/48 135/36/48 117/35/48
f 135/37/49 124/40/49 136/39/49 115/38/49
f 115/41/50 136/44/50 137/43/50 120/42/50
f 109/48/51 110/47/51 111/75/51 108/76/51
f 120/49/52 137/52/52 138/51/52 119/50/52
f 109/48/51 116/54/51 121/53/51 110/47/51
f 82/56/53 91/57/53 123/57/53 122/56/53
f 105/62/54 123/61/54 125/60/54 104/59/54
f 104/59/55 125/60/55 114/64/55 103/63/55
f 118/65/56 113/66/56 122/56/56 106/55/56
f 108/76/51 111/75/51 112/68/51 107/67/51
f 78/53/53 79/47/53 110/47/53 121/53/53
f 119/72/57 138/71/57 121/53/57 116/54/57
f 102/34/48 117/35/48 129/35/48 128/34/48
f 101/74/40 100/73/40 133/73/40 134/74/40
f 129/35/48 127/35/48 126/34/48 130/34/48 131/34/48 132/34/48 128/34/48
f 103/63/37 114/64/37 134/74/37 133/73/37
f 83/64/53 101/74/53 134/74/53 114/64/53
f 95/35/58 93/35/58 127/35/58 129/35/58
f 74/50/58 86/49/58 120/49/58 119/50/58
f 94/34/53 96/34/53 130/34/53 126/34/53
f 96/34/53 97/34/53 131/34/53 130/34/53
f 97/34/53 98/34/53 132/34/53 131/34/53
f 80/68/53 81/69/53 113/69/53 112/68/53
f 90/46/53 80/68/53 112/68/53 111/75/53
f 70/70/58 71/67/58 107/67/58 118/70/58
f 92/60/53 83/64/53 114/64/53 125/60/53
f 98/34/53 99/34/53 128/34/53 132/34/53
f 84/59/58 68/62/58 105/62/58 104/59/58
f 67/63/58 84/59/58 104/59/58 103/63/58
f 72/48/58 73/54/58 116/54/58 109/48/58
f 85/45/58 72/48/58 109/48/58 108/76/58
f 79/47/53 90/46/53 111/75/53 110/47/53
f 69/55/58 106/55/58 105/58/58 68/58/58
f 93/35/40 94/34/40 126/34/40 127/35/40
f 100/73/58 67/63/58 103/63/58 133/73/58
f 91/57/59 82/56/59 69/55/59 68/58/59
f 71/67/58 85/45/58 108/76/58 107/67/58
f 99/34/53 66/34/53 102/34/53 128/34/53
f 87/36/58 65/35/58 117/35/58 135/36/58
f 71/67/60 70/70/60 81/69/60 80/68/60
f 76/40/53 77/39/53 136/39/53 124/40/53
f 88/52/53 89/51/53 138/51/53 137/52/53
f 65/35/58 95/35/58 129/35/58 117/35/58
f 81/66/53 82/56/53 122/56/53 113/66/53
f 69/55/58 70/65/58 118/65/58 106/55/58
f 73/54/58 74/72/58 119/72/58 116/54/58
f 86/42/58 75/41/58 115/41/58 120/42/58
f 75/38/58 87/37/58 135/37/58 115/38/58
f 66/34/53 76/33/53 124/33/53 102/34/53
f 77/44/53 88/43/53 137/43/53 136/44/53
f 89/71/53 78/53/53 121/53/53 138/71/53
f 91/61/53 92/60/53 125/60/53 123/61/53
f 164/77/37 165/78/37 148/39/37 147/38/37
f 164/77/37 163/79/37 166/80/37 165/78/37
f 163/79/61 146/42/61 149/43/61 166/80/61
f 162/81/62 167/82/62 149/43/62 146/42/62
f 187/54/63 200/53/63 201/83/63 186/84/63
f 162/81/64 145/72/64 150/71/64 167/82/64
f 202/85/40 185/86/40 186/84/40 201/83/40
f 159/87/57 170/88/57 153/68/57 142/67/57
f 182/87/41 205/88/41 206/66/41 181/65/41
f 157/58/48 172/57/48 155/89/48 140/90/48
f 157/58/48 139/62/48 156/61/48 172/57/48
f 153/68/51 152/47/51 143/48/51 142/67/51
f 158/65/50 141/55/50 154/56/50 171/66/50
f 180/55/38 207/56/38 208/89/38 179/90/38
f 160/86/51 143/48/51 152/47/51 169/85/51
f 161/84/65 168/83/65 151/53/65 144/54/65
f 144/54/46 151/53/46 150/71/46 145/72/46
f 147/38/37 148/39/37 174/34/37 173/35/37
f 156/61/48 139/62/48 175/73/48 176/74/48
f 193/38/48 194/39/48 195/78/48 192/77/48
f 192/77/48 195/78/48 196/80/48 191/79/48
f 191/79/43 196/80/43 197/43/43 190/42/43
f 198/82/66 189/81/66 190/42/66 197/43/66
f 155/89/49 154/56/49 141/55/49 140/90/49
f 189/81/45 198/82/45 199/71/45 188/72/45
f 183/67/47 204/68/47 205/88/47 182/87/47
f 170/88/58 171/66/58 206/66/58 205/88/58
f 179/90/37 208/89/37 209/57/37 178/58/37
f 178/58/37 209/57/37 210/61/37 177/62/37
f 184/48/40 203/47/40 204/68/40 183/67/40
f 181/65/39 206/66/39 207/56/39 180/55/39
f 152/47/58 153/68/58 204/68/58 203/47/58
f 185/86/67 202/85/67 203/47/67 184/48/67
f 188/72/68 199/71/68 200/53/68 187/54/68
f 193/38/48 211/35/48 212/34/48 194/39/48
f 213/73/37 177/62/37 210/61/37 214/74/37
f 173/35/51 174/34/51 212/34/51 211/35/51
f 169/85/58 152/47/58 203/47/58 202/85/58
f 154/56/58 155/89/58 208/89/58 207/56/58
f 158/65/53 159/87/53 182/87/53 181/65/53
f 145/72/53 188/72/53 187/54/53 144/54/53
f 171/66/58 154/56/58 207/56/58 206/66/58
f 151/53/58 200/53/58 199/71/58 150/71/58
f 140/90/53 141/55/53 180/55/53 179/90/53
f 145/72/53 162/81/53 189/81/53 188/72/53
f 172/57/58 156/61/58 210/61/58 209/57/58
f 146/42/53 190/42/53 189/81/53 162/81/53
f 146/42/53 163/79/53 191/79/53 190/42/53
f 165/78/58 166/80/58 196/80/58 195/78/58
f 147/38/53 173/35/53 211/35/53 193/38/53
f 148/39/58 165/78/58 195/78/58 194/39/58
f 149/43/58 167/82/58 198/82/58 197/43/58
f 151/53/58 168/83/58 201/83/58 200/53/58
f 157/58/53 140/90/53 179/90/53 178/58/53
f 142/67/53 143/48/53 184/48/53 183/67/53
f 159/87/53 142/67/53 183/67/53 182/87/53
f 159/87/52 158/65/52 171/66/52 170/88/52
f 174/34/58 148/39/58 194/39/58 212/34/58
f 163/79/53 164/77/53 192/77/53 191/79/53
f 168/83/58 169/85/58 202/85/58 201/83/58
f 160/86/53 161/84/53 186/84/53 185/86/53
f 176/74/51 175/73/51 213/73/51 214/74/51
f 160/86/51 169/85/51 168/83/51 161/84/51
f 153/68/58 170/88/58 205/88/58 204/68/58
f 155/89/58 172/57/58 209/57/58 208/89/58
f 161/84/53 144/54/53 187/54/53 186/84/53
f 156/61/58 176/74/58 214/74/58 210/61/58
f 164/77/53 147/38/53 193/38/53 192/77/53
f 166/80/58 149/43/58 197/43/58 196/80/58
f 139/62/53 157/58/53 178/58/53 177/62/53
f 167/82/58 150/71/58 199/71/58 198/82/58
f 141/55/53 158/65/53 181/65/53 180/55/53
f 143/48/53 160/86/53 185/86/53 184/48/53
f 175/73/53 139/62/53 177/62/53 213/73/53
