# Blender 4.2.16 LTS
# www.blender.org
o tape_0.009
v -0.110525 -0.356874 1.249983
v 0.097894 -0.356874 1.249983
v -0.110525 -0.356108 -1.249982
v -0.110525 -0.373189 -1.248578
v -0.110525 -0.379286 -1.244409
v -0.110525 -0.383168 -1.238599
v -0.110525 -0.384572 -1.231542
v -0.110525 -0.384572 -1.214174
v -0.110525 -0.384572 1.231543
v -0.110525 -0.383168 1.238600
v -0.110525 -0.373189 1.248579
v 0.097894 -0.366133 1.249983
v 0.097894 -0.373189 1.248579
v 0.097894 -0.384572 1.231543
v 0.097894 -0.384572 -1.214174
v 0.097894 -0.384572 -1.231542
v 0.097894 -0.383168 -1.238599
v 0.097894 -0.379286 -1.244409
v 0.097894 -0.356108 -1.249982
v -0.110525 -0.368932 -1.249425
v -0.110525 -0.384572 -1.223860
v -0.110525 -0.379171 1.244582
v -0.110525 -0.366133 1.249983
v 0.097894 -0.379171 1.244582
v 0.097894 -0.383168 1.238600
v 0.097894 -0.384572 -1.223859
v 0.097894 -0.373189 -1.248578
v 0.097894 -0.368932 -1.249425
v -0.110525 -0.000693 1.249983
v 0.097894 -0.000693 1.249983
v -0.110525 -0.346080 1.249983
v 0.097894 -0.097833 1.249983
v 0.097894 -0.108626 1.249983
v 0.097894 -0.119420 1.249983
v 0.097894 -0.346080 1.249983
v -0.110525 -0.074699 -1.249982
v 0.097894 -0.074699 -1.249982
v 0.097894 -0.356874 1.252983
v -0.110525 -0.356108 -1.252982
v -0.110525 -0.369453 -1.252374
v -0.110525 -0.374240 -1.251423
v -0.110525 -0.381598 -1.246142
v -0.110525 -0.387404 -1.231856
v -0.110525 -0.387404 -1.223860
v -0.110525 -0.387404 -1.214174
v 0.097894 -0.387404 -1.214174
v 0.097894 -0.387404 -1.223859
v 0.097894 -0.387404 -1.231858
v 0.097894 -0.385821 -1.239822
v 0.097894 -0.356108 -1.252982
v -0.110525 -0.374243 1.251422
v -0.110525 -0.387404 1.231856
v -0.110525 -0.356874 1.252983
v -0.110525 -0.385819 -1.239825
v -0.110525 -0.385819 1.239826
v -0.110525 -0.381158 1.246802
v 0.097894 -0.387404 1.231856
v 0.097894 -0.381598 -1.246142
v 0.097894 -0.374252 -1.251418
v 0.097894 -0.366396 1.252983
v 0.097894 -0.369451 -1.252374
v 0.097894 -0.000693 1.252983
v -0.110525 -0.000693 1.252983
v 0.097894 -0.346080 1.252983
v -0.110525 -0.346080 1.252983
v 0.097894 -0.097833 1.252983
v 0.097894 -0.108626 1.252983
v 0.097894 -0.119420 1.252983
v -0.110525 -0.074699 -1.252982
v 0.097894 -0.074699 -1.252982
v -0.110525 -0.366396 1.252983
v 0.097894 -0.374243 1.251422
v 0.097894 -0.381158 1.246802
v 0.097894 -0.385819 1.239826
v 0.085508 0.345752 -1.249982
v 0.085508 0.366132 -1.249982
v 0.085508 0.373189 -1.248578
v 0.085508 0.384572 -1.231542
v 0.085508 0.384572 -1.214480
v 0.085508 0.383750 1.235675
v 0.085508 0.383168 1.238600
v 0.085508 0.373189 1.248580
v 0.085508 0.344804 1.249983
v -0.122911 0.344804 1.249983
v -0.122911 0.373189 1.248580
v -0.122911 0.383168 1.238600
v -0.122911 0.383750 1.235675
v -0.122911 0.384572 -1.214479
v -0.122911 0.384572 -1.231542
v -0.122911 0.373189 -1.248578
v -0.122911 0.366132 -1.249982
v -0.122911 0.345752 -1.249982
v 0.085508 0.356321 -1.249982
v 0.085508 0.379171 -1.244581
v 0.085508 0.383168 -1.238599
v 0.085508 0.384572 -1.199483
v 0.085508 0.384572 1.230051
v 0.085508 0.379171 1.244583
v 0.085508 0.366132 1.249983
v 0.085508 0.354933 1.249983
v -0.122911 0.354933 1.249983
v -0.122911 0.366132 1.249983
v -0.122911 0.379171 1.244583
v -0.122911 0.384572 1.230052
v -0.122911 0.384572 -1.199482
v -0.122911 0.383168 -1.238599
v -0.122911 0.379171 -1.244581
v -0.122911 0.356322 -1.249982
v 0.085508 0.098503 1.249983
v -0.122911 0.098503 1.249983
v 0.085508 0.005405 -1.249982
v -0.122911 0.005405 -1.249982
v 0.085508 0.345752 -1.252982
v 0.085508 0.356321 -1.252982
v 0.085508 0.366428 -1.252982
v 0.085508 0.374360 -1.251404
v 0.085508 0.381334 -1.246744
v 0.085508 0.385994 -1.239769
v 0.085508 0.387572 -1.231838
v 0.085508 0.387572 -1.214480
v 0.085508 0.387159 -1.199483
v 0.085508 0.387159 1.230269
v 0.085508 0.386708 1.236185
v 0.085508 0.385663 1.240267
v 0.085508 0.381666 1.246249
v 0.085508 0.373774 1.251522
v 0.085508 0.366428 1.252983
v 0.085508 0.354933 1.252983
v 0.085508 0.344804 1.252983
v -0.122911 0.344804 1.252983
v -0.122911 0.354933 1.252983
v -0.122911 0.366428 1.252983
v -0.122911 0.373774 1.251522
v -0.122911 0.381666 1.246249
v -0.122911 0.385663 1.240267
v -0.122911 0.386708 1.236185
v -0.122911 0.387159 1.230270
v -0.122911 0.387159 -1.199482
v -0.122911 0.387572 -1.214479
v -0.122911 0.387572 -1.231838
v -0.122911 0.385994 -1.239769
v -0.122911 0.381334 -1.246744
v -0.122911 0.374360 -1.251404
v -0.122911 0.366428 -1.252982
v -0.122911 0.356322 -1.252982
v -0.122911 0.345752 -1.252982
v 0.085508 0.098503 1.252983
v -0.122911 0.098503 1.252983
v 0.085508 0.005405 -1.252982
v -0.122911 0.005405 -1.252982
vn -0.0000 -0.0000 1.0000
vn -0.0000 -0.1951 0.9808
vn -0.0000 -0.5556 0.8315
vn -0.0000 -1.0000 -0.0000
vn -0.0000 -0.8315 0.5556
vn -0.0000 0.5832 0.8124
vn -0.0000 -0.1951 -0.9808
vn -0.0000 -0.0434 -0.9991
vn -0.0000 -0.8315 -0.5556
vn -0.0000 0.9808 0.1951
vn -0.0000 -0.9808 0.1951
vn -0.0000 -0.0000 -1.0000
vn -0.0000 0.1951 -0.9808
vn -0.0000 0.5556 -0.8315
vn -0.0000 1.0000 -0.0000
vn -0.0000 0.8315 -0.5556
vn -1.0000 -0.0000 -0.0000
vn -0.0000 0.1952 0.9808
vn -0.0000 0.0455 0.9990
vn -0.0000 0.8315 0.5555
vn -0.0000 0.9808 -0.1951
vn 1.0000 -0.0000 -0.0000
vn -0.0000 -0.5645 -0.8255
vn -0.0000 -0.9808 -0.1951
vn -0.0000 0.1951 0.9808
vn -0.0000 0.5556 0.8315
vn -0.0000 -0.9971 -0.0761
vn -0.0000 0.8315 0.5556
vn -0.0000 0.9895 0.1446
vn -0.0000 -0.5556 -0.8315
vn -0.0000 -0.9996 -0.0275
vn -0.0000 -0.9688 -0.2479
vn -1.0000 -0.0000 0.0001
vn 1.0000 -0.0000 -0.0001
vt 1.000000 0.004950
vt 1.000000 0.000000
vt 0.000000 0.000000
vt 0.000000 0.004950
vt 0.000000 0.014851
vt 0.000000 0.019802
vt 1.000000 0.019802
vt 1.000000 0.014851
vt 0.000000 0.029703
vt 0.000000 0.039604
vt 1.000000 0.039604
vt 1.000000 0.029703
vt 0.000000 0.884285
vt 1.000000 0.884286
vt 1.000000 0.881188
vt 0.000000 0.881188
vt 0.000000 0.044554
vt 0.000000 0.049505
vt 1.000000 0.049505
vt 1.000000 0.044554
vt 1.000000 0.069307
vt 0.000000 0.069307
vt 0.000000 0.910891
vt 1.000000 0.910891
vt 1.000000 0.925743
vt 0.000000 0.925743
vt 0.000000 0.935644
vt 1.000000 0.935644
vt 1.000000 0.930693
vt 0.000000 0.930693
vt 0.000000 0.950495
vt 1.000000 0.950495
vt 0.000000 0.905941
vt 1.000000 0.905941
vt 0.000000 0.891089
vt 1.000000 0.891089
vt 1.000000 0.900990
vt 0.000000 0.900990
vt 1.000000 0.059406
vt 0.000000 0.059406
vt 0.000000 1.000000
vt 1.000000 1.000000
vt 1.000000 0.884263
vt 0.000000 0.884263
vt 0.000000 0.024752
vt 1.000000 0.024752
vt 0.000000 0.034653
vt 1.000000 0.034653
vt 0.000000 0.054455
vt 1.000000 0.054455
vt 1.000000 0.074257
vt 0.000000 0.074257
vt 1.000000 0.876238
vt 0.000000 0.876238
vt 0.000000 0.896040
vt 1.000000 0.896040
vt 1.000000 0.920792
vt 0.000000 0.920792
s 0
f 12/1/1 2/2/1 1/3/1 23/4/1
f 23/5/2 11/6/2 13/7/2 12/8/2
f 11/9/3 22/10/3 24/11/3 13/12/3
f 21/13/4 26/14/4 15/15/4 8/16/4
f 22/17/5 10/18/5 25/19/5 24/20/5
f 15/15/4 14/21/4 9/22/4 8/16/4
f 42/23/6 58/24/6 59/25/6 41/26/6
f 20/27/7 28/28/7 27/29/7 4/30/7
f 20/27/8 3/31/8 19/32/8 28/28/8
f 6/33/9 5/23/9 18/24/9 17/34/9
f 21/13/4 7/35/4 16/36/4 26/14/4
f 49/37/10 54/38/10 43/35/10 48/36/10
f 9/22/11 14/21/11 25/39/11 10/40/11
f 35/2/1 31/3/1 1/3/1 2/2/1
f 31/3/1 35/2/1 34/2/1 33/2/1 32/2/1 30/2/1 29/3/1
f 3/31/12 36/41/12 37/42/12 19/32/12
f 38/2/12 60/1/12 71/4/12 53/3/12
f 71/5/13 60/8/13 72/7/13 51/6/13
f 51/9/14 72/12/14 73/11/14 56/10/14
f 45/16/15 46/15/15 47/43/15 44/44/15
f 56/17/16 73/20/16 74/19/16 55/18/16
f 45/16/15 52/22/15 57/21/15 46/15/15
f 18/24/17 27/25/17 59/25/17 58/24/17
f 41/30/18 59/29/18 61/28/18 40/27/18
f 40/27/19 61/28/19 50/32/19 39/31/19
f 54/33/20 49/34/20 58/24/20 42/23/20
f 44/44/15 47/43/15 48/36/15 43/35/15
f 14/21/17 15/15/17 46/15/17 57/21/17
f 55/40/21 74/39/21 57/21/21 52/22/21
f 38/2/12 53/3/12 65/3/12 64/2/12
f 37/42/4 36/41/4 69/41/4 70/42/4
f 65/3/12 63/3/12 62/2/12 66/2/12 67/2/12 68/2/12 64/2/12
f 39/31/1 50/32/1 70/42/1 69/41/1
f 19/32/17 37/42/17 70/42/17 50/32/17
f 31/3/22 29/3/22 63/3/22 65/3/22
f 10/18/22 22/17/22 56/17/22 55/18/22
f 30/2/17 32/2/17 66/2/17 62/2/17
f 32/2/17 33/2/17 67/2/17 66/2/17
f 33/2/17 34/2/17 68/2/17 67/2/17
f 16/36/17 17/37/17 49/37/17 48/36/17
f 26/14/17 16/36/17 48/36/17 47/43/17
f 6/38/22 7/35/22 43/35/22 54/38/22
f 28/28/17 19/32/17 50/32/17 61/28/17
f 34/2/17 35/2/17 64/2/17 68/2/17
f 20/27/22 4/30/22 41/30/22 40/27/22
f 3/31/22 20/27/22 40/27/22 39/31/22
f 8/16/22 9/22/22 52/22/22 45/16/22
f 21/13/22 8/16/22 45/16/22 44/44/22
f 15/15/17 26/14/17 47/43/17 46/15/17
f 5/23/22 42/23/22 41/26/22 4/26/22
f 29/3/4 30/2/4 62/2/4 63/3/4
f 36/41/22 3/31/22 39/31/22 69/41/22
f 27/25/23 18/24/23 5/23/23 4/26/23
f 7/35/22 21/13/22 44/44/22 43/35/22
f 35/2/17 2/2/17 38/2/17 64/2/17
f 23/4/22 1/3/22 53/3/22 71/4/22
f 7/35/24 6/38/24 17/37/24 16/36/24
f 12/8/17 13/7/17 72/7/17 60/8/17
f 24/20/17 25/19/17 74/19/17 73/20/17
f 1/3/22 31/3/22 65/3/22 53/3/22
f 17/34/17 18/24/17 58/24/17 49/34/17
f 5/23/22 6/33/22 54/33/22 42/23/22
f 9/22/22 10/40/22 55/40/22 52/22/22
f 22/10/22 11/9/22 51/9/22 56/10/22
f 11/6/22 23/5/22 71/5/22 51/6/22
f 2/2/17 12/1/17 60/1/17 38/2/17
f 13/12/17 24/11/17 73/11/17 72/12/17
f 25/39/17 14/21/17 57/21/17 74/39/17
f 27/29/17 28/28/17 61/28/17 59/29/17
f 100/45/1 101/46/1 84/7/1 83/6/1
f 100/45/1 99/47/1 102/48/1 101/46/1
f 99/47/25 82/10/25 85/11/25 102/48/25
f 98/49/26 103/50/26 85/11/26 82/10/26
f 123/22/27 136/21/27 137/51/27 122/52/27
f 98/49/28 81/40/28 86/39/28 103/50/28
f 138/53/4 121/54/4 122/52/4 137/51/4
f 95/55/21 106/56/21 89/36/21 78/35/21
f 118/55/5 141/56/5 142/34/5 117/33/5
f 93/26/12 108/25/12 91/57/12 76/58/12
f 93/26/12 75/30/12 92/29/12 108/25/12
f 89/36/15 88/15/15 79/16/15 78/35/15
f 94/33/14 77/23/14 90/24/14 107/34/14
f 116/23/2 143/24/2 144/57/2 115/58/2
f 96/54/15 79/16/15 88/15/15 105/53/15
f 97/52/29 104/51/29 87/21/29 80/22/29
f 80/22/10 87/21/10 86/39/10 81/40/10
f 83/6/1 84/7/1 110/2/1 109/3/1
f 92/29/12 75/30/12 111/41/12 112/42/12
f 129/6/12 130/7/12 131/46/12 128/45/12
f 128/45/12 131/46/12 132/48/12 127/47/12
f 127/47/7 132/48/7 133/11/7 126/10/7
f 134/50/30 125/49/30 126/10/30 133/11/30
f 91/57/13 90/24/13 77/23/13 76/58/13
f 125/49/9 134/50/9 135/39/9 124/40/9
f 119/35/11 140/36/11 141/56/11 118/55/11
f 106/56/22 107/34/22 142/34/22 141/56/22
f 115/58/1 144/57/1 145/25/1 114/26/1
f 114/26/1 145/25/1 146/29/1 113/30/1
f 120/16/4 139/15/4 140/36/4 119/35/4
f 117/33/3 142/34/3 143/24/3 116/23/3
f 88/15/22 89/36/22 140/36/22 139/15/22
f 121/54/31 138/53/31 139/15/31 120/16/31
f 124/40/32 135/39/32 136/21/32 123/22/32
f 129/6/12 147/3/12 148/2/12 130/7/12
f 149/41/1 113/30/1 146/29/1 150/42/1
f 109/3/15 110/2/15 148/2/15 147/3/15
f 105/53/22 88/15/22 139/15/22 138/53/22
f 90/24/22 91/57/22 144/57/22 143/24/22
f 94/33/17 95/55/17 118/55/17 117/33/17
f 81/40/33 124/40/33 123/22/33 80/22/33
f 107/34/22 90/24/22 143/24/22 142/34/22
f 87/21/34 136/21/34 135/39/34 86/39/34
f 76/58/17 77/23/17 116/23/17 115/58/17
f 81/40/17 98/49/17 125/49/17 124/40/17
f 108/25/22 92/29/22 146/29/22 145/25/22
f 82/10/17 126/10/17 125/49/17 98/49/17
f 82/10/17 99/47/17 127/47/17 126/10/17
f 101/46/22 102/48/22 132/48/22 131/46/22
f 83/6/17 109/3/17 147/3/17 129/6/17
f 84/7/22 101/46/22 131/46/22 130/7/22
f 85/11/22 103/50/22 134/50/22 133/11/22
f 87/21/22 104/51/22 137/51/22 136/21/22
f 93/26/17 76/58/17 115/58/17 114/26/17
f 78/35/17 79/16/17 120/16/17 119/35/17
f 95/55/17 78/35/17 119/35/17 118/55/17
f 95/55/16 94/33/16 107/34/16 106/56/16
f 110/2/22 84/7/22 130/7/22 148/2/22
f 99/47/17 100/45/17 128/45/17 127/47/17
f 104/51/22 105/53/22 138/53/22 137/51/22
f 96/54/17 97/52/17 122/52/17 121/54/17
f 112/42/15 111/41/15 149/41/15 150/42/15
f 96/54/15 105/53/15 104/51/15 97/52/15
f 89/36/22 106/56/22 141/56/22 140/36/22
f 91/57/22 108/25/22 145/25/22 144/57/22
f 97/52/17 80/22/17 123/22/17 122/52/17
f 92/29/22 112/42/22 150/42/22 146/29/22
f 100/45/17 83/6/17 129/6/17 128/45/17
f 102/48/22 85/11/22 133/11/22 132/48/22
f 75/30/17 93/26/17 114/26/17 113/30/17
f 103/50/22 86/39/22 135/39/22 134/50/22
f 77/23/17 94/33/17 117/33/17 116/23/17
f 79/16/17 96/54/17 121/54/17 120/16/17
f 111/41/17 75/30/17 113/30/17 149/41/17
o 평면.034
v 0.460543 0.384572 0.237672
v -0.727515 -0.211593 0.237672
v 0.460543 0.384572 0.555643
v -0.727515 -0.211593 0.555643
v -0.727515 0.366133 0.237672
v -0.714335 0.383526 0.237672
v -0.726111 0.373189 0.237672
v -0.723789 0.376665 0.237672
v -0.719668 0.380806 0.237672
v -0.714334 0.383526 0.555642
v -0.727515 0.366133 0.555642
v -0.719668 0.380806 0.555642
v -0.723789 0.376665 0.555642
v -0.726111 0.373189 0.555642
v -0.727515 0.311403 0.237672
v -0.727515 0.256673 0.237672
v -0.727515 0.201943 0.237672
v -0.727515 0.147214 0.237672
v -0.727515 0.092484 0.237672
v -0.727515 0.092484 0.555643
v -0.727515 0.147214 0.555643
v -0.727515 0.201943 0.555642
v -0.727515 0.256673 0.555642
v -0.727515 0.311403 0.555642
v -0.565730 0.383875 0.237672
v -0.640032 0.383700 0.237672
v -0.640032 0.383700 0.555642
v -0.565729 0.383875 0.555643
v -0.650647 0.383675 0.237672
v -0.661261 0.383651 0.237672
v -0.671876 0.383626 0.237672
v -0.682491 0.383601 0.237672
v -0.693105 0.383576 0.237672
v -0.703720 0.383551 0.237672
v -0.703720 0.383551 0.555642
v -0.693105 0.383576 0.555642
v -0.682491 0.383601 0.555642
v -0.671876 0.383626 0.555642
v -0.661261 0.383651 0.555642
v -0.650647 0.383675 0.555642
v -0.727515 0.319221 0.555642
v -0.727515 0.327040 0.555642
v -0.727515 0.334858 0.555642
v -0.727515 0.342677 0.555642
v -0.727515 0.350495 0.555642
v -0.727515 0.358314 0.555642
v -0.727515 0.358314 0.237672
v -0.727515 0.350495 0.237672
v -0.727515 0.342677 0.237672
v -0.727515 0.334858 0.237672
v -0.727515 0.327040 0.237672
v -0.727515 0.319221 0.237672
v 0.460536 0.387572 0.555643
v 0.460536 0.387572 0.237672
v -0.730515 -0.211593 0.237672
v -0.730515 -0.211593 0.555643
v -0.728883 0.374337 0.237672
v -0.730501 0.366427 0.237672
v -0.730501 0.366427 0.555642
v -0.728883 0.374337 0.555642
v -0.726110 0.378565 0.237672
v -0.726110 0.378565 0.555642
v -0.721435 0.383231 0.237672
v -0.721434 0.383231 0.555642
v -0.715039 0.386442 0.237672
v -0.715039 0.386442 0.555642
v -0.730515 0.092484 0.237672
v -0.730515 0.358314 0.555642
v -0.703727 0.386551 0.237672
v -0.730515 0.319221 0.237672
v -0.730515 0.311403 0.237672
v -0.730515 0.256673 0.237672
v -0.730515 0.201943 0.237672
v -0.730515 0.147214 0.237672
v -0.730515 0.092484 0.555643
v -0.730515 0.147214 0.555643
v -0.730515 0.201943 0.555642
v -0.730515 0.256673 0.555642
v -0.730515 0.311403 0.555642
v -0.565737 0.386875 0.237672
v -0.640039 0.386700 0.237672
v -0.650654 0.386675 0.555642
v -0.640039 0.386700 0.555642
v -0.565736 0.386875 0.555643
v -0.650654 0.386675 0.237672
v -0.661268 0.386651 0.237672
v -0.671883 0.386626 0.237672
v -0.682498 0.386601 0.237672
v -0.693112 0.386576 0.237672
v -0.703727 0.386551 0.555642
v -0.693112 0.386576 0.555642
v -0.682498 0.386601 0.555642
v -0.671883 0.386626 0.555642
v -0.661268 0.386651 0.555642
v -0.730515 0.319221 0.555642
v -0.730515 0.327040 0.555642
v -0.730515 0.334858 0.555642
v -0.730515 0.342677 0.555642
v -0.730515 0.350495 0.555642
v -0.730515 0.358314 0.237672
v -0.730515 0.350495 0.237672
v -0.730515 0.342677 0.237672
v -0.730515 0.334858 0.237672
v -0.730515 0.327040 0.237672
vn 0.0023 -1.0000 -0.0000
vn 0.9808 -0.1951 -0.0000
vn 0.8315 -0.5556 -0.0000
vn 0.7088 -0.7054 -0.0000
vn 0.4543 -0.8908 -0.0000
vn 1.0000 -0.0000 -0.0000
vn 0.0007 -1.0000 -0.0000
vn -0.0096 1.0000 -0.0000
vn -0.9797 0.2003 -0.0000
vn -0.8362 0.5484 -0.0000
vn -0.7063 0.7079 -0.0000
vn -0.4488 0.8937 -0.0000
vn -1.0000 -0.0000 -0.0000
vn -0.0007 1.0000 -0.0000
vn -0.0023 1.0000 -0.0000
vn -1.0000 0.0018 -0.0000
vn -0.0000 -0.0000 1.0000
vn -0.0000 -0.0000 -1.0000
vn 1.0000 0.0023 -0.0000
vn -0.0000 -1.0000 -0.0000
vt 0.322859 0.000000
vt 0.322859 1.000000
vt 0.330733 1.000000
vt 0.330733 0.000000
vt 0.407526 0.000000
vt 0.383694 0.000000
vt 0.383694 1.000000
vt 0.407526 1.000000
vt 0.353286 0.000000
vt 0.353286 1.000000
vt 0.340642 0.000000
vt 0.340642 1.000000
vt 0.901254 0.000000
vt 0.901254 1.000000
vt 1.000000 1.000000
vt 1.000000 0.000000
vt 0.492165 0.000000
vt 0.492165 1.000000
vt 0.506271 1.000000
vt 0.506271 0.000000
vt 0.605017 1.000000
vt 0.605017 0.000000
vt 0.703763 1.000000
vt 0.703763 0.000000
vt 0.802509 1.000000
vt 0.802509 0.000000
vt 0.000000 1.000000
vt 0.220489 1.000000
vt 0.220489 0.000000
vt 0.000000 0.000000
vt 0.275611 1.000000
vt 0.275611 0.000000
vt 0.283486 1.000000
vt 0.283486 0.000000
vt 0.291360 1.000000
vt 0.291360 0.000000
vt 0.299235 1.000000
vt 0.299235 0.000000
vt 0.307109 1.000000
vt 0.307109 0.000000
vt 0.314984 1.000000
vt 0.314984 0.000000
vt 0.421632 1.000000
vt 0.421632 0.000000
vt 0.435739 1.000000
vt 0.435739 0.000000
vt 0.449845 1.000000
vt 0.449845 0.000000
vt 0.463952 1.000000
vt 0.463952 0.000000
vt 0.478058 1.000000
vt 0.478058 0.000000
s 0
f 184/59/35 185/60/35 160/61/35 156/62/35
f 155/63/36 157/64/36 164/65/36 161/66/36
f 157/64/37 158/67/37 163/68/37 164/65/37
f 158/67/38 159/69/38 162/70/38 163/68/38
f 159/69/39 156/62/39 160/61/39 162/70/39
f 169/71/40 170/72/40 154/73/40 152/74/40
f 202/75/40 191/76/40 174/77/40 165/78/40
f 165/78/40 174/77/40 173/79/40 166/80/40
f 166/80/40 173/79/40 172/81/40 167/82/40
f 167/82/40 172/81/40 171/83/40 168/84/40
f 168/84/40 171/83/40 170/72/40 169/71/40
f 153/85/41 178/86/41 175/87/41 151/88/41
f 175/87/35 178/86/35 177/89/35 176/90/35
f 176/90/35 177/89/35 190/91/35 179/92/35
f 179/92/35 190/91/35 189/93/35 180/94/35
f 180/94/35 189/93/35 188/95/35 181/96/35
f 181/96/35 188/95/35 187/97/35 182/98/35
f 182/98/35 187/97/35 186/99/35 183/100/35
f 183/100/35 186/99/35 185/60/35 184/59/35
f 155/63/40 161/66/40 196/101/40 197/102/40
f 197/102/40 196/101/40 195/103/40 198/104/40
f 198/104/40 195/103/40 194/105/40 199/106/40
f 199/106/40 194/105/40 193/107/40 200/108/40
f 200/108/40 193/107/40 192/109/40 201/110/40
f 201/110/40 192/109/40 191/76/40 202/75/40
f 219/59/42 215/62/42 216/61/42 240/60/42
f 208/63/43 209/66/43 210/65/43 207/64/43
f 207/64/44 210/65/44 212/68/44 211/67/44
f 211/67/45 212/68/45 214/70/45 213/69/45
f 213/69/46 214/70/46 216/61/46 215/62/46
f 217/71/47 205/74/47 206/73/47 225/72/47
f 220/75/47 221/78/47 229/77/47 245/76/47
f 221/78/47 222/80/47 228/79/47 229/77/47
f 222/80/47 223/82/47 227/81/47 228/79/47
f 223/82/47 224/84/47 226/83/47 227/81/47
f 224/84/47 217/71/47 225/72/47 226/83/47
f 204/88/48 230/87/48 234/86/48 203/85/48
f 230/87/49 231/90/49 233/89/49 234/86/49
f 231/90/49 235/92/49 232/91/49 233/89/49
f 235/92/49 236/94/49 244/93/49 232/91/49
f 236/94/49 237/96/49 243/95/49 244/93/49
f 237/96/49 238/98/49 242/97/49 243/95/49
f 238/98/49 239/100/49 241/99/49 242/97/49
f 239/100/49 219/59/49 240/60/49 241/99/49
f 208/63/50 250/102/50 218/101/50 209/66/50
f 250/102/47 251/104/47 249/103/47 218/101/47
f 251/104/47 252/106/47 248/105/47 249/103/47
f 252/106/47 253/108/47 247/107/47 248/105/47
f 253/108/47 254/110/47 246/109/47 247/107/47
f 254/110/47 220/75/47 245/76/47 246/109/47
f 192/109/51 193/107/51 247/107/51 246/109/51
f 184/59/52 156/62/52 215/62/52 219/59/52
f 193/107/51 194/105/51 248/105/51 247/107/51
f 194/105/51 195/103/51 249/103/51 248/105/51
f 202/75/52 165/78/52 221/78/52 220/75/52
f 195/103/51 196/101/51 218/101/51 249/103/51
f 165/78/52 166/80/52 222/80/52 221/78/52
f 155/63/52 197/102/52 250/102/52 208/63/52
f 166/80/52 167/82/52 223/82/52 222/80/52
f 197/102/52 198/104/52 251/104/52 250/102/52
f 167/82/52 168/84/52 224/84/52 223/82/52
f 198/104/52 199/106/52 252/106/52 251/104/52
f 176/90/52 179/92/52 235/92/52 231/90/52
f 168/84/52 169/71/52 217/71/52 224/84/52
f 199/106/52 200/108/52 253/108/52 252/106/52
f 179/92/52 180/94/52 236/94/52 235/92/52
f 154/73/51 170/72/51 225/72/51 206/73/51
f 200/108/52 201/110/52 254/110/52 253/108/52
f 180/94/52 181/96/52 237/96/52 236/94/52
f 170/72/51 171/83/51 226/83/51 225/72/51
f 201/110/52 202/75/52 220/75/52 254/110/52
f 181/96/52 182/98/52 238/98/52 237/96/52
f 171/83/51 172/81/51 227/81/51 226/83/51
f 153/85/53 151/88/53 204/88/53 203/85/53
f 182/98/52 183/100/52 239/100/52 238/98/52
f 172/81/51 173/79/51 228/79/51 227/81/51
f 152/74/54 154/73/54 206/73/54 205/74/54
f 183/100/52 184/59/52 219/59/52 239/100/52
f 173/79/51 174/77/51 229/77/51 228/79/51
f 157/64/52 155/63/52 208/63/52 207/64/52
f 160/61/51 185/60/51 240/60/51 216/61/51
f 185/60/51 186/99/51 241/99/51 240/60/51
f 161/66/51 164/65/51 210/65/51 209/66/51
f 186/99/51 187/97/51 242/97/51 241/99/51
f 187/97/51 188/95/51 243/95/51 242/97/51
f 158/67/52 157/64/52 207/64/52 211/67/52
f 188/95/51 189/93/51 244/93/51 243/95/51
f 164/65/51 163/68/51 212/68/51 210/65/51
f 189/93/51 190/91/51 232/91/51 244/93/51
f 159/69/52 158/67/52 211/67/52 213/69/52
f 151/88/52 175/87/52 230/87/52 204/88/52
f 163/68/51 162/70/51 214/70/51 212/68/51
f 153/85/51 203/85/51 234/86/51 178/86/51
f 175/87/52 176/90/52 231/90/52 230/87/52
f 156/62/52 159/69/52 213/69/52 215/62/52
f 190/91/51 177/89/51 233/89/51 232/91/51
f 162/70/51 160/61/51 216/61/51 214/70/51
f 177/89/51 178/86/51 234/86/51 233/89/51
f 174/77/51 191/76/51 245/76/51 229/77/51
f 169/71/52 152/74/52 205/74/52 217/71/52
f 191/76/51 192/109/51 246/109/51 245/76/51
f 196/101/51 161/66/51 209/66/51 218/101/51
o 평면.035
v -0.472822 -0.384572 -0.247901
v 0.727515 -0.037754 -0.247901
v -0.472822 -0.384572 -0.565871
v 0.727515 -0.037754 -0.565871
v 0.727515 -0.366133 -0.247901
v 0.714334 -0.383526 -0.247901
v 0.726111 -0.373189 -0.247901
v 0.723789 -0.376665 -0.247901
v 0.719668 -0.380806 -0.247901
v 0.714334 -0.383526 -0.565871
v 0.727515 -0.366133 -0.565871
v 0.719668 -0.380806 -0.565871
v 0.723789 -0.376665 -0.565871
v 0.726111 -0.373189 -0.565871
v 0.727515 -0.311403 -0.247901
v 0.727515 -0.256673 -0.247901
v 0.727515 -0.201943 -0.247901
v 0.727515 -0.147214 -0.247901
v 0.727515 -0.092484 -0.247901
v 0.727515 -0.092484 -0.565871
v 0.727515 -0.147214 -0.565871
v 0.727515 -0.201943 -0.565871
v 0.727515 -0.256673 -0.565871
v 0.727515 -0.311403 -0.565871
v -0.432307 -0.384563 -0.247901
v 0.187005 -0.384315 -0.247901
v 0.187005 -0.384316 -0.565871
v -0.432307 -0.384563 -0.565871
v 0.682491 -0.383601 -0.247901
v 0.693105 -0.383576 -0.247901
v 0.703720 -0.383551 -0.247901
v 0.703720 -0.383551 -0.565871
v 0.693105 -0.383576 -0.565871
v 0.682490 -0.383601 -0.565871
v 0.727515 -0.319221 -0.565871
v 0.727515 -0.327040 -0.565871
v 0.727515 -0.334858 -0.565871
v 0.727515 -0.342677 -0.565871
v 0.727515 -0.350495 -0.565871
v 0.727515 -0.358314 -0.565871
v 0.727515 -0.358314 -0.247901
v 0.727515 -0.350495 -0.247901
v 0.727515 -0.342677 -0.247901
v 0.727515 -0.334858 -0.247901
v 0.727515 -0.327040 -0.247901
v 0.727515 -0.319221 -0.247901
v -0.472815 -0.393737 -0.565871
v -0.472815 -0.393737 -0.247901
v 0.730515 -0.037754 -0.247901
v 0.730515 -0.037754 -0.565871
v 0.728883 -0.374337 -0.247901
v 0.730501 -0.366427 -0.247901
v 0.730501 -0.366427 -0.565871
v 0.728883 -0.374337 -0.565871
v 0.726110 -0.378565 -0.247901
v 0.726110 -0.378565 -0.565871
v 0.721434 -0.383231 -0.247901
v 0.721434 -0.383231 -0.565871
v 0.715039 -0.386442 -0.247901
v 0.715039 -0.386442 -0.565871
v 0.730515 -0.092484 -0.247901
v 0.730515 -0.358314 -0.565871
v 0.703727 -0.386551 -0.247901
v -0.432300 -0.393728 -0.565871
v 0.730515 -0.319221 -0.247901
v 0.730515 -0.311403 -0.247901
v 0.730515 -0.256673 -0.247901
v 0.730515 -0.201943 -0.247901
v 0.730515 -0.147214 -0.247901
v 0.730515 -0.092484 -0.565871
v 0.730515 -0.147214 -0.565871
v 0.730515 -0.201943 -0.565871
v 0.730515 -0.256673 -0.565871
v 0.730515 -0.311403 -0.565871
v -0.432300 -0.393728 -0.247901
v 0.187012 -0.393480 -0.247901
v 0.187012 -0.393480 -0.565871
v 0.682498 -0.386601 -0.247901
v 0.693112 -0.386576 -0.247901
v 0.703727 -0.386551 -0.565871
v 0.693112 -0.386576 -0.565871
v 0.682498 -0.386601 -0.565871
v 0.730515 -0.319221 -0.565871
v 0.730515 -0.327040 -0.565871
v 0.730515 -0.334858 -0.565871
v 0.730515 -0.342677 -0.565871
v 0.730515 -0.350495 -0.565871
v 0.730515 -0.358314 -0.247901
v 0.730515 -0.350495 -0.247901
v 0.730515 -0.342677 -0.247901
v 0.730515 -0.334858 -0.247901
v 0.730515 -0.327040 -0.247901
vn 0.0023 -1.0000 -0.0000
vn 0.9808 -0.1951 -0.0000
vn 0.8315 -0.5556 -0.0000
vn 0.7088 -0.7054 -0.0000
vn 0.4543 -0.8908 -0.0000
vn 1.0000 -0.0000 -0.0000
vn 0.0002 -1.0000 -0.0000
vn 0.0004 -1.0000 -0.0000
vn 0.0014 -1.0000 -0.0000
vn -0.0096 1.0000 -0.0000
vn -0.9797 0.2003 -0.0000
vn -0.8362 0.5484 -0.0000
vn -0.7063 0.7079 -0.0000
vn -0.4488 0.8937 -0.0000
vn -1.0000 -0.0000 -0.0000
vn -0.0002 1.0000 -0.0000
vn -0.0004 1.0000 -0.0000
vn -0.0139 0.9999 -0.0000
vn -0.0023 1.0000 -0.0000
vn -1.0000 0.0018 -0.0000
vn -0.0000 -0.0000 1.0000
vn -0.0000 -0.0000 -1.0000
vn 1.0000 0.0008 -0.0000
vn -0.0000 -1.0000 -0.0000
vt 0.322859 0.000000
vt 0.322859 1.000000
vt 0.330733 1.000000
vt 0.330733 0.000000
vt 0.407526 0.000000
vt 0.383694 0.000000
vt 0.383694 1.000000
vt 0.407526 1.000000
vt 0.353286 0.000000
vt 0.353286 1.000000
vt 0.340642 0.000000
vt 0.340642 1.000000
vt 0.901254 0.000000
vt 0.901254 1.000000
vt 1.000000 1.000000
vt 1.000000 0.000000
vt 0.492165 0.000000
vt 0.492165 1.000000
vt 0.506271 1.000000
vt 0.506271 0.000000
vt 0.605017 1.000000
vt 0.605017 0.000000
vt 0.703763 1.000000
vt 0.703763 0.000000
vt 0.802509 1.000000
vt 0.802509 0.000000
vt 0.000000 0.000000
vt 0.000000 1.000000
vt 0.002738 1.000000
vt 0.002738 0.000000
vt 0.081120 1.000000
vt 0.081120 0.000000
vt 0.307109 1.000000
vt 0.307109 0.000000
vt 0.314984 1.000000
vt 0.314984 0.000000
vt 0.421632 1.000000
vt 0.421632 0.000000
vt 0.435739 1.000000
vt 0.435739 0.000000
vt 0.449845 1.000000
vt 0.449845 0.000000
vt 0.463952 1.000000
vt 0.463952 0.000000
vt 0.478058 1.000000
vt 0.478058 0.000000
vt -0.171558 0.000000
vt -0.172650 1.000000
vt 0.033901 0.000000
vt 0.033606 1.000000
s 0
f 285/111/55 286/112/55 264/113/55 260/114/55
f 259/115/56 261/116/56 268/117/56 265/118/56
f 261/116/57 262/119/57 267/120/57 268/117/57
f 262/119/58 263/121/58 266/122/58 267/120/58
f 263/121/59 260/114/59 264/113/59 266/122/59
f 273/123/60 274/124/60 258/125/60 256/126/60
f 300/127/60 289/128/60 278/129/60 269/130/60
f 269/130/60 278/129/60 277/131/60 270/132/60
f 270/132/60 277/131/60 276/133/60 271/134/60
f 271/134/60 276/133/60 275/135/60 272/136/60
f 272/136/60 275/135/60 274/124/60 273/123/60
f 255/137/61 257/138/61 282/139/61 279/140/61
f 279/140/62 282/139/62 281/141/62 280/142/62
f 280/142/63 281/141/63 288/143/63 283/144/63
f 283/144/55 288/143/55 287/145/55 284/146/55
f 284/146/55 287/145/55 286/112/55 285/111/55
f 259/115/60 265/118/60 294/147/60 295/148/60
f 295/148/60 294/147/60 293/149/60 296/150/60
f 296/150/60 293/149/60 292/151/60 297/152/60
f 297/152/60 292/151/60 291/153/60 298/154/60
f 298/154/60 291/153/60 290/155/60 299/156/60
f 299/156/60 290/155/60 289/128/60 300/127/60
f 317/111/64 313/114/64 314/113/64 334/112/64
f 306/115/65 307/118/65 308/117/65 305/116/65
f 305/116/66 308/117/66 310/120/66 309/119/66
f 309/119/67 310/120/67 312/122/67 311/121/67
f 311/121/68 312/122/68 314/113/68 313/114/68
f 315/123/69 303/126/69 304/125/69 324/124/69
f 319/127/69 320/130/69 328/129/69 337/128/69
f 320/130/69 321/132/69 327/131/69 328/129/69
f 321/132/69 322/134/69 326/133/69 327/131/69
f 322/134/69 323/136/69 325/135/69 326/133/69
f 323/136/69 315/123/69 324/124/69 325/135/69
f 302/137/70 329/157/70 318/158/70 301/138/70
f 329/157/71 330/159/71 331/160/71 318/158/71
f 330/159/72 332/144/72 336/143/72 331/160/72
f 332/144/73 333/146/73 335/145/73 336/143/73
f 333/146/73 317/111/73 334/112/73 335/145/73
f 306/115/74 342/148/74 316/147/74 307/118/74
f 342/148/69 343/150/69 341/149/69 316/147/69
f 343/150/69 344/152/69 340/151/69 341/149/69
f 344/152/69 345/154/69 339/153/69 340/151/69
f 345/154/69 346/156/69 338/155/69 339/153/69
f 346/156/69 319/127/69 337/128/69 338/155/69
f 290/155/75 291/153/75 339/153/75 338/155/75
f 281/141/75 282/139/75 318/158/75 331/160/75
f 285/111/76 260/114/76 313/114/76 317/111/76
f 291/153/75 292/151/75 340/151/75 339/153/75
f 282/139/75 257/138/75 301/138/75 318/158/75
f 292/151/75 293/149/75 341/149/75 340/151/75
f 300/127/76 269/130/76 320/130/76 319/127/76
f 293/149/75 294/147/75 316/147/75 341/149/75
f 269/130/76 270/132/76 321/132/76 320/130/76
f 259/115/76 295/148/76 342/148/76 306/115/76
f 270/132/76 271/134/76 322/134/76 321/132/76
f 295/148/76 296/150/76 343/150/76 342/148/76
f 271/134/76 272/136/76 323/136/76 322/134/76
f 296/150/76 297/152/76 344/152/76 343/150/76
f 272/136/76 273/123/76 315/123/76 323/136/76
f 297/152/76 298/154/76 345/154/76 344/152/76
f 258/125/75 274/124/75 324/124/75 304/125/75
f 298/154/76 299/156/76 346/156/76 345/154/76
f 280/142/76 283/144/76 332/144/76 330/159/76
f 274/124/75 275/135/75 325/135/75 324/124/75
f 299/156/76 300/127/76 319/127/76 346/156/76
f 275/135/75 276/133/75 326/133/75 325/135/75
f 257/138/77 255/137/77 302/137/77 301/138/77
f 283/144/76 284/146/76 333/146/76 332/144/76
f 276/133/75 277/131/75 327/131/75 326/133/75
f 256/126/78 258/125/78 304/125/78 303/126/78
f 284/146/76 285/111/76 317/111/76 333/146/76
f 277/131/75 278/129/75 328/129/75 327/131/75
f 261/116/76 259/115/76 306/115/76 305/116/76
f 264/113/75 286/112/75 334/112/75 314/113/75
f 286/112/75 287/145/75 335/145/75 334/112/75
f 265/118/75 268/117/75 308/117/75 307/118/75
f 287/145/75 288/143/75 336/143/75 335/145/75
f 288/143/75 281/141/75 331/160/75 336/143/75
f 262/119/76 261/116/76 305/116/76 309/119/76
f 268/117/75 267/120/75 310/120/75 308/117/75
f 255/137/76 279/140/76 329/157/76 302/137/76
f 279/140/76 280/142/76 330/159/76 329/157/76
f 263/121/76 262/119/76 309/119/76 311/121/76
f 267/120/75 266/122/75 312/122/75 310/120/75
f 260/114/76 263/121/76 311/121/76 313/114/76
f 266/122/75 264/113/75 314/113/75 312/122/75
f 278/129/75 289/128/75 337/128/75 328/129/75
f 273/123/76 256/126/76 303/126/76 315/123/76
f 289/128/75 290/155/75 338/155/75 337/128/75
f 294/147/75 265/118/75 307/118/75 316/147/75
o 평면.036
v 0.233052 0.384572 0.847132
v 0.233052 0.384572 0.597082
v -0.727515 -0.323847 0.847132
v -0.727515 -0.323847 0.597082
v 0.233038 0.387235 0.847132
v 0.233038 0.387235 0.597082
v -0.730515 -0.323815 0.597082
v -0.730515 -0.323815 0.847132
v -0.711967 0.382250 0.847132
v -0.725409 0.369319 0.847132
v -0.719514 0.379190 0.847132
v -0.723756 0.374177 0.847132
v -0.725409 0.369319 0.597082
v -0.711967 0.382250 0.597082
v -0.723756 0.374177 0.597082
v -0.719514 0.379190 0.597082
v -0.712699 0.385241 0.597082
v -0.729032 0.369776 0.597082
v -0.721337 0.382069 0.597082
v -0.726526 0.375769 0.597082
v -0.729032 0.369776 0.847132
v -0.712699 0.385241 0.847132
v -0.726526 0.375769 0.847132
v -0.721337 0.382069 0.847132
vn -0.0000 -0.0000 1.0000
vn -0.0021 1.0000 -0.0000
vn -0.0000 -0.0000 -1.0000
vn -1.0000 0.0021 -0.0000
vn -0.0108 -0.9999 -0.0000
vn 1.0000 0.0052 -0.0000
vn 0.0025 -1.0000 -0.0000
vn 0.3758 -0.9267 -0.0000
vn 0.7634 -0.6459 -0.0000
vn 0.9467 -0.3222 -0.0000
vn -0.9226 0.3858 -0.0000
vn -0.7719 0.6358 -0.0000
vn -0.3447 0.9387 -0.0000
vn 1.0000 -0.0030 -0.0000
vt 0.009195 0.000000
vt 1.000000 0.000000
vt 0.009172 0.000000
vt 0.000000 0.000000
vt 0.009172 0.000000
vt 1.000000 1.000000
vt 0.009172 1.000000
vt 0.009195 1.000000
vt 0.009172 1.000000
vt 0.000000 1.000000
vt 0.009195 0.000000
vt 0.009195 1.000000
vt 0.003978 0.000000
vt 0.003978 1.000000
vt 0.003963 0.000000
vt 0.003963 1.000000
s 0
f 355/161/79 347/162/79 351/162/79 368/163/79
f 349/164/79 356/164/79 367/164/79 354/164/79
f 368/165/80 351/162/80 352/166/80 363/167/80
f 348/166/81 360/168/81 363/169/81 352/166/81
f 367/164/82 364/170/82 353/170/82 354/164/82
f 350/170/83 349/164/83 354/164/83 353/170/83
f 347/162/84 348/166/84 352/166/84 351/162/84
f 355/171/85 360/172/85 348/166/85 347/162/85
f 359/170/81 350/170/81 353/170/81 364/170/81
f 360/172/86 355/171/86 357/173/86 362/174/86
f 362/174/87 357/173/87 358/164/87 361/170/87
f 361/170/88 358/164/88 356/164/88 359/170/88
f 364/170/89 367/164/89 369/164/89 366/170/89
f 366/170/90 369/164/90 370/175/90 365/176/90
f 365/176/91 370/175/91 368/165/91 363/167/91
f 367/164/79 356/164/79 358/164/79 369/164/79
f 369/164/79 358/164/79 357/173/79 370/175/79
f 370/175/79 357/173/79 355/161/79 368/163/79
f 363/169/81 360/168/81 362/174/81 365/176/81
f 365/176/81 362/174/81 361/170/81 366/170/81
f 366/170/81 361/170/81 359/170/81 364/170/81
f 356/164/92 349/164/92 350/170/92 359/170/92
o 평면.037
v 0.242796 -0.384572 -0.370768
v 0.360955 -0.384572 -0.591139
v 0.242783 -0.388801 -0.370774
v 0.360942 -0.388801 -0.591145
v -0.375152 -0.388801 -0.985826
v -0.493311 -0.388801 -0.765455
v -0.375140 -0.384572 -0.985819
v -0.493299 -0.384572 -0.765449
vn -0.0000 -1.0000 -0.0000
vn 0.8813 -0.0033 0.4725
vn -0.4725 -0.0000 0.8813
vn -0.8813 0.0033 -0.4725
vn -0.0000 1.0000 -0.0000
vn 0.4725 -0.0000 -0.8813
vt 1.000000 1.000000
vt 1.000000 0.000000
s 0
f 374/177/93 373/178/93 376/178/93 375/177/93
f 371/178/94 373/178/94 374/177/94 372/177/94
f 373/178/95 371/178/95 378/178/95 376/178/95
f 378/178/96 377/177/96 375/177/96 376/178/96
f 371/178/97 372/177/97 377/177/97 378/178/97
f 372/177/98 374/177/98 375/177/98 377/177/98
o 평면.038
v -0.679397 0.384572 1.152178
v 0.692419 0.384572 1.152178
v -0.679397 0.307150 1.249983
v 0.692419 0.307150 1.249983
v -0.679397 0.383231 1.238286
v -0.679397 0.378510 1.244582
v -0.679397 0.381300 1.241396
v 0.692419 0.378510 1.244582
v 0.692419 0.383231 1.238287
v 0.692419 0.381300 1.241396
v -0.679397 0.383924 1.234803
v 0.692419 0.383924 1.234803
v -0.679397 0.367008 1.249458
v 0.692419 0.367008 1.249458
v -0.679397 0.387072 1.152193
v 0.692419 0.387072 1.152193
v 0.692419 0.307253 1.252481
v -0.679397 0.307253 1.252481
v 0.692419 0.380278 1.246350
v -0.679397 0.380278 1.246350
v 0.692419 0.385556 1.239205
v 0.692419 0.383402 1.242750
v -0.679397 0.383402 1.242750
v -0.679397 0.385556 1.239205
v -0.679397 0.386411 1.235055
v 0.692419 0.386411 1.235055
v -0.679397 0.367783 1.251835
v 0.692419 0.367783 1.251835
v -0.679397 0.373176 1.247882
v 0.692419 0.373176 1.247882
v -0.679397 0.374447 1.249954
v 0.692419 0.374447 1.249954
vn -0.0000 0.0088 1.0000
vn -0.0000 0.8496 0.5275
vn -0.0000 0.9808 0.1951
vn -0.0000 0.7523 0.6588
vn -0.0000 1.0000 0.0078
vn -0.0000 0.2475 0.9689
vn -0.0000 -0.0107 -0.9999
vn -0.0000 -0.8546 -0.5193
vn -0.0000 -0.9794 -0.2018
vn -0.0000 -0.7553 -0.6554
vn -0.0000 -1.0000 -0.0080
vn -0.0000 -0.2716 -0.9624
vn 1.0000 -0.0000 -0.0000
vn -0.0000 -0.0058 1.0000
vn -0.0000 0.9992 -0.0411
vn -1.0000 -0.0000 -0.0000
vn -0.0000 -0.5258 -0.8506
vn -0.0000 0.5261 0.8504
vt 0.000000 0.569076
vt 0.000000 1.000000
vt 1.000000 1.000000
vt 1.000000 0.569076
vt 0.000000 0.489817
vt 1.000000 0.489817
vt 1.000000 0.456416
vt 0.000000 0.456416
vt 0.000000 0.442158
vt 1.000000 0.442158
vt 0.000000 0.542793
vt 1.000000 0.542793
vt 0.000000 0.000000
vt 1.000000 0.000000
vt 0.000000 0.555934
vt 1.000000 0.555934
s 0
f 391/179/99 381/180/99 382/181/99 392/182/99
f 385/183/100 388/184/100 387/185/100 383/186/100
f 389/187/101 383/186/101 387/185/101 390/188/101
f 384/189/102 386/190/102 388/184/102 385/183/102
f 379/191/103 389/187/103 390/188/103 380/192/103
f 407/193/104 391/179/104 392/182/104 408/194/104
f 405/179/105 406/182/105 395/181/105 396/180/105
f 401/183/106 402/186/106 399/185/106 400/184/106
f 403/187/107 404/188/107 399/185/107 402/186/107
f 398/189/108 401/183/108 400/184/108 397/190/108
f 393/191/109 394/192/109 404/188/109 403/187/109
f 409/193/110 410/194/110 406/182/110 405/179/110
f 385/183/111 383/186/111 402/186/111 401/183/111
f 379/191/112 380/192/112 394/192/112 393/191/112
f 382/181/113 381/180/113 396/180/113 395/181/113
f 381/180/111 391/179/111 405/179/111 396/180/111
f 389/187/111 379/191/111 393/191/111 403/187/111
f 408/194/114 392/182/114 406/182/114 410/194/114
f 390/188/114 387/185/114 399/185/114 404/188/114
f 387/185/114 388/184/114 400/184/114 399/185/114
f 407/193/111 384/189/111 398/189/111 409/193/111
f 384/189/111 385/183/111 401/183/111 398/189/111
f 392/182/114 382/181/114 395/181/114 406/182/114
f 383/186/111 389/187/111 403/187/111 402/186/111
f 388/184/114 386/190/114 397/190/114 400/184/114
f 380/192/114 390/188/114 404/188/114 394/192/114
f 391/179/111 407/193/111 409/193/111 405/179/111
f 386/190/114 408/194/114 410/194/114 397/190/114
f 398/189/115 397/190/115 410/194/115 409/193/115
f 384/189/116 407/193/116 408/194/116 386/190/116
