# Blender 4.2.16 LTS
# www.blender.org
o 평면.032
v 0.268520 0.384572 0.716929
v 0.727515 0.037754 0.716929
v 0.268520 0.384572 0.398959
v 0.727515 0.037754 0.398959
v 0.727515 0.366133 0.716929
v 0.714334 0.383526 0.716929
v 0.726111 0.373189 0.716929
v 0.723789 0.376665 0.716929
v 0.719668 0.380806 0.716929
v 0.714334 0.383526 0.398959
v 0.727515 0.366133 0.398959
v 0.719668 0.380806 0.398959
v 0.723789 0.376665 0.398959
v 0.726111 0.373189 0.398959
v 0.727515 0.311403 0.716929
v 0.727515 0.256673 0.716929
v 0.727515 0.201943 0.716929
v 0.727515 0.147214 0.716929
v 0.727515 0.092484 0.716929
v 0.727515 0.092484 0.398959
v 0.727515 0.147214 0.398959
v 0.727515 0.201943 0.398959
v 0.727515 0.256673 0.398959
v 0.727515 0.311403 0.398959
v 0.342822 0.384398 0.716929
v 0.417125 0.384223 0.716929
v 0.491427 0.384049 0.716929
v 0.565729 0.383875 0.716929
v 0.640032 0.383700 0.716929
v 0.640032 0.383700 0.398959
v 0.565729 0.383875 0.398959
v 0.491427 0.384049 0.398959
v 0.417125 0.384223 0.398959
v 0.342822 0.384398 0.398959
v 0.650647 0.383675 0.716929
v 0.661261 0.383651 0.716929
v 0.671876 0.383626 0.716929
v 0.682491 0.383601 0.716929
v 0.693105 0.383576 0.716929
v 0.703720 0.383551 0.716929
v 0.703720 0.383551 0.398959
v 0.693105 0.383576 0.398959
v 0.682490 0.383601 0.398959
v 0.671876 0.383626 0.398959
v 0.661261 0.383651 0.398959
v 0.650647 0.383675 0.398959
v 0.727515 0.319221 0.398959
v 0.727515 0.327040 0.398959
v 0.727515 0.334858 0.398959
v 0.727515 0.342677 0.398959
v 0.727515 0.350495 0.398959
v 0.727515 0.358314 0.398959
v 0.727515 0.358314 0.716929
v 0.727515 0.350495 0.716929
v 0.727515 0.342677 0.716929
v 0.727515 0.334858 0.716929
v 0.727515 0.327040 0.716929
v 0.727515 0.319221 0.716929
v 0.268527 0.387572 0.398959
v 0.268527 0.387572 0.716929
v 0.730515 0.037754 0.716929
v 0.730515 0.037754 0.398959
v 0.728883 0.374337 0.716929
v 0.730501 0.366427 0.716929
v 0.730501 0.366427 0.398959
v 0.728883 0.374337 0.398959
v 0.726110 0.378565 0.716929
v 0.726110 0.378565 0.398959
v 0.721434 0.383231 0.716929
v 0.721434 0.383231 0.398959
v 0.715039 0.386442 0.716929
v 0.715039 0.386442 0.398959
v 0.730515 0.092484 0.716929
v 0.730515 0.358314 0.398959
v 0.703727 0.386551 0.716929
v 0.342829 0.387398 0.398959
v 0.730515 0.319221 0.716929
v 0.730515 0.311403 0.716929
v 0.730515 0.256673 0.716929
v 0.730515 0.201943 0.716929
v 0.730515 0.147214 0.716929
v 0.730515 0.092484 0.398959
v 0.730515 0.147214 0.398959
v 0.730515 0.201943 0.398959
v 0.730515 0.256673 0.398959
v 0.730515 0.311403 0.398959
v 0.342829 0.387398 0.716929
v 0.417132 0.387223 0.716929
v 0.491434 0.387049 0.716929
v 0.565737 0.386875 0.716929
v 0.640039 0.386700 0.716929
v 0.650654 0.386675 0.398959
v 0.640039 0.386700 0.398959
v 0.565736 0.386875 0.398959
v 0.491434 0.387049 0.398959
v 0.417132 0.387223 0.398959
v 0.650654 0.386675 0.716929
v 0.661268 0.386651 0.716929
v 0.671883 0.386626 0.716929
v 0.682498 0.386601 0.716929
v 0.693112 0.386576 0.716929
v 0.703727 0.386551 0.398959
v 0.693112 0.386576 0.398959
v 0.682498 0.386601 0.398959
v 0.671883 0.386626 0.398959
v 0.661268 0.386651 0.398959
v 0.730515 0.319221 0.398959
v 0.730515 0.327040 0.398959
v 0.730515 0.334858 0.398959
v 0.730515 0.342677 0.398959
v 0.730515 0.350495 0.398959
v 0.730515 0.358314 0.716929
v 0.730515 0.350495 0.716929
v 0.730515 0.342677 0.716929
v 0.730515 0.334858 0.716929
v 0.730515 0.327040 0.716929
vn -0.0023 -1.0000 -0.0000
vn -0.9808 -0.1951 -0.0000
vn -0.8315 -0.5556 -0.0000
vn -0.7088 -0.7054 -0.0000
vn -0.4543 -0.8908 -0.0000
vn -1.0000 -0.0000 -0.0000
vn 0.0096 1.0000 -0.0000
vn 0.9797 0.2003 -0.0000
vn 0.8362 0.5484 -0.0000
vn 0.7063 0.7079 -0.0000
vn 0.4488 0.8937 -0.0000
vn 1.0000 -0.0000 -0.0000
vn 0.0023 1.0000 -0.0000
vn 1.0000 0.0018 -0.0000
vn -0.0000 -0.0000 -1.0000
vn -0.0000 -0.0000 1.0000
vn -1.0000 0.0023 -0.0000
vn -0.0000 -1.0000 -0.0000
vt 0.322859 0.000000
vt 0.322859 1.000000
vt 0.330733 1.000000
vt 0.330733 0.000000
vt 0.407526 0.000000
vt 0.383694 0.000000
vt 0.383694 1.000000
vt 0.407526 1.000000
vt 0.353286 0.000000
vt 0.353286 1.000000
vt 0.340642 0.000000
vt 0.340642 1.000000
vt 0.901254 0.000000
vt 0.901254 1.000000
vt 1.000000 1.000000
vt 1.000000 0.000000
vt 0.492165 0.000000
vt 0.492165 1.000000
vt 0.506271 1.000000
vt 0.506271 0.000000
vt 0.605017 1.000000
vt 0.605017 0.000000
vt 0.703763 1.000000
vt 0.703763 0.000000
vt 0.802509 1.000000
vt 0.802509 0.000000
vt 0.000000 0.000000
vt 0.000000 1.000000
vt 0.055122 1.000000
vt 0.055122 0.000000
vt 0.110244 1.000000
vt 0.110244 0.000000
vt 0.165367 1.000000
vt 0.165367 0.000000
vt 0.220489 1.000000
vt 0.220489 0.000000
vt 0.275611 1.000000
vt 0.275611 0.000000
vt 0.283486 1.000000
vt 0.283486 0.000000
vt 0.291360 1.000000
vt 0.291360 0.000000
vt 0.299235 1.000000
vt 0.299235 0.000000
vt 0.307109 1.000000
vt 0.307109 0.000000
vt 0.314984 1.000000
vt 0.314984 0.000000
vt 0.421632 1.000000
vt 0.421632 0.000000
vt 0.435739 1.000000
vt 0.435739 0.000000
vt 0.449845 1.000000
vt 0.449845 0.000000
vt 0.463952 1.000000
vt 0.463952 0.000000
vt 0.478058 1.000000
vt 0.478058 0.000000
s 0
f 40/1/1 41/2/1 10/3/1 6/4/1
f 5/5/2 7/6/2 14/7/2 11/8/2
f 7/6/3 8/9/3 13/10/3 14/7/3
f 8/9/4 9/11/4 12/12/4 13/10/4
f 9/11/5 6/4/5 10/3/5 12/12/5
f 19/13/6 20/14/6 4/15/6 2/16/6
f 58/17/6 47/18/6 24/19/6 15/20/6
f 15/20/6 24/19/6 23/21/6 16/22/6
f 16/22/6 23/21/6 22/23/6 17/24/6
f 17/24/6 22/23/6 21/25/6 18/26/6
f 18/26/6 21/25/6 20/14/6 19/13/6
f 1/27/1 3/28/1 34/29/1 25/30/1
f 25/30/1 34/29/1 33/31/1 26/32/1
f 26/32/1 33/31/1 32/33/1 27/34/1
f 27/34/1 32/33/1 31/35/1 28/36/1
f 28/36/1 31/35/1 30/37/1 29/38/1
f 29/38/1 30/37/1 46/39/1 35/40/1
f 35/40/1 46/39/1 45/41/1 36/42/1
f 36/42/1 45/41/1 44/43/1 37/44/1
f 37/44/1 44/43/1 43/45/1 38/46/1
f 38/46/1 43/45/1 42/47/1 39/48/1
f 39/48/1 42/47/1 41/2/1 40/1/1
f 5/5/6 11/8/6 52/49/6 53/50/6
f 53/50/6 52/49/6 51/51/6 54/52/6
f 54/52/6 51/51/6 50/53/6 55/54/6
f 55/54/6 50/53/6 49/55/6 56/56/6
f 56/56/6 49/55/6 48/57/6 57/58/6
f 57/58/6 48/57/6 47/18/6 58/17/6
f 75/1/7 71/4/7 72/3/7 102/2/7
f 64/5/8 65/8/8 66/7/8 63/6/8
f 63/6/9 66/7/9 68/10/9 67/9/9
f 67/9/10 68/10/10 70/12/10 69/11/10
f 69/11/11 70/12/11 72/3/11 71/4/11
f 73/13/12 61/16/12 62/15/12 82/14/12
f 77/17/12 78/20/12 86/19/12 107/18/12
f 78/20/12 79/22/12 85/21/12 86/19/12
f 79/22/12 80/24/12 84/23/12 85/21/12
f 80/24/12 81/26/12 83/25/12 84/23/12
f 81/26/12 73/13/12 82/14/12 83/25/12
f 60/27/13 87/30/13 76/29/13 59/28/13
f 87/30/13 88/32/13 96/31/13 76/29/13
f 88/32/13 89/34/13 95/33/13 96/31/13
f 89/34/13 90/36/13 94/35/13 95/33/13
f 90/36/13 91/38/13 93/37/13 94/35/13
f 91/38/13 97/40/13 92/39/13 93/37/13
f 97/40/13 98/42/13 106/41/13 92/39/13
f 98/42/13 99/44/13 105/43/13 106/41/13
f 99/44/13 100/46/13 104/45/13 105/43/13
f 100/46/13 101/48/13 103/47/13 104/45/13
f 101/48/13 75/1/13 102/2/13 103/47/13
f 64/5/14 112/50/14 74/49/14 65/8/14
f 112/50/12 113/52/12 111/51/12 74/49/12
f 113/52/12 114/54/12 110/53/12 111/51/12
f 114/54/12 115/56/12 109/55/12 110/53/12
f 115/56/12 116/58/12 108/57/12 109/55/12
f 116/58/12 77/17/12 107/18/12 108/57/12
f 48/57/15 49/55/15 109/55/15 108/57/15
f 33/31/15 34/29/15 76/29/15 96/31/15
f 40/1/16 6/4/16 71/4/16 75/1/16
f 49/55/15 50/53/15 110/53/15 109/55/15
f 34/29/15 3/28/15 59/28/15 76/29/15
f 50/53/15 51/51/15 111/51/15 110/53/15
f 58/17/16 15/20/16 78/20/16 77/17/16
f 51/51/15 52/49/15 74/49/15 111/51/15
f 15/20/16 16/22/16 79/22/16 78/20/16
f 5/5/16 53/50/16 112/50/16 64/5/16
f 16/22/16 17/24/16 80/24/16 79/22/16
f 53/50/16 54/52/16 113/52/16 112/50/16
f 17/24/16 18/26/16 81/26/16 80/24/16
f 54/52/16 55/54/16 114/54/16 113/52/16
f 29/38/16 35/40/16 97/40/16 91/38/16
f 18/26/16 19/13/16 73/13/16 81/26/16
f 55/54/16 56/56/16 115/56/16 114/54/16
f 35/40/16 36/42/16 98/42/16 97/40/16
f 4/15/15 20/14/15 82/14/15 62/15/15
f 56/56/16 57/58/16 116/58/16 115/56/16
f 36/42/16 37/44/16 99/44/16 98/42/16
f 20/14/15 21/25/15 83/25/15 82/14/15
f 57/58/16 58/17/16 77/17/16 116/58/16
f 37/44/16 38/46/16 100/46/16 99/44/16
f 21/25/15 22/23/15 84/23/15 83/25/15
f 3/28/17 1/27/17 60/27/17 59/28/17
f 38/46/16 39/48/16 101/48/16 100/46/16
f 22/23/15 23/21/15 85/21/15 84/23/15
f 2/16/18 4/15/18 62/15/18 61/16/18
f 39/48/16 40/1/16 75/1/16 101/48/16
f 23/21/15 24/19/15 86/19/15 85/21/15
f 7/6/16 5/5/16 64/5/16 63/6/16
f 10/3/15 41/2/15 102/2/15 72/3/15
f 41/2/15 42/47/15 103/47/15 102/2/15
f 11/8/15 14/7/15 66/7/15 65/8/15
f 42/47/15 43/45/15 104/45/15 103/47/15
f 43/45/15 44/43/15 105/43/15 104/45/15
f 8/9/16 7/6/16 63/6/16 67/9/16
f 44/43/15 45/41/15 106/41/15 105/43/15
f 14/7/15 13/10/15 68/10/15 66/7/15
f 45/41/15 46/39/15 92/39/15 106/41/15
f 1/27/16 25/30/16 87/30/16 60/27/16
f 25/30/16 26/32/16 88/32/16 87/30/16
f 9/11/16 8/9/16 67/9/16 69/11/16
f 26/32/16 27/34/16 89/34/16 88/32/16
f 13/10/15 12/12/15 70/12/15 68/10/15
f 27/34/16 28/36/16 90/36/16 89/34/16
f 28/36/16 29/38/16 91/38/16 90/36/16
f 6/4/16 9/11/16 69/11/16 71/4/16
f 46/39/15 30/37/15 93/37/15 92/39/15
f 12/12/15 10/3/15 72/3/15 70/12/15
f 30/37/15 31/35/15 94/35/15 93/37/15
f 24/19/15 47/18/15 107/18/15 86/19/15
f 31/35/15 32/33/15 95/33/15 94/35/15
f 19/13/16 2/16/16 61/16/16 73/13/16
f 47/18/15 48/57/15 108/57/15 107/18/15
f 32/33/15 33/31/15 96/31/15 95/33/15
f 52/49/15 11/8/15 65/8/15 74/49/15
o 평면.033
v 0.451667 0.384572 -0.059663
v 0.451667 0.384572 -0.112677
v -0.727515 -0.231067 -0.059663
v -0.727515 -0.231067 -0.112677
v 0.451653 0.388389 -0.059663
v 0.451653 0.388389 -0.112677
v -0.730515 -0.231035 -0.112677
v -0.730515 -0.231035 -0.059663
v -0.711967 0.382250 -0.059663
v -0.725409 0.369319 -0.059663
v -0.719514 0.379190 -0.059663
v -0.723756 0.374177 -0.059663
v -0.725409 0.369319 -0.112677
v -0.711967 0.382250 -0.112677
v -0.723756 0.374177 -0.112677
v -0.719514 0.379190 -0.112677
v -0.712699 0.386395 -0.112677
v -0.729032 0.369776 -0.112677
v -0.721337 0.382069 -0.112677
v -0.726526 0.375769 -0.112677
v -0.729032 0.369776 -0.059663
v -0.712699 0.386395 -0.059663
v -0.726526 0.375769 -0.059663
v -0.721337 0.382069 -0.059663
vn -0.0000 -0.0000 1.0000
vn -0.0017 1.0000 -0.0000
vn -0.0000 -0.0000 -1.0000
vn -1.0000 0.0025 -0.0000
vn -0.0108 -0.9999 -0.0000
vn 1.0000 0.0036 -0.0000
vn 0.0020 -1.0000 -0.0000
vn 0.3758 -0.9267 -0.0000
vn 0.7634 -0.6459 -0.0000
vn 0.9467 -0.3222 -0.0000
vn -0.9226 0.3858 -0.0000
vn -0.7719 0.6358 -0.0000
vn -0.4477 0.8942 -0.0000
vn 1.0000 -0.0035 -0.0000
vt 0.009195 0.000000
vt 1.000000 0.000000
vt 0.009172 0.000000
vt 0.000000 0.000000
vt 0.009172 0.000000
vt 1.000000 1.000000
vt 0.009172 1.000000
vt 0.009195 1.000000
vt 0.009172 1.000000
vt 0.000000 1.000000
vt 0.009195 0.000000
vt 0.009195 1.000000
vt 0.003978 0.000000
vt 0.003978 1.000000
vt 0.003963 0.000000
vt 0.003963 1.000000
s 0
f 125/59/19 117/60/19 121/60/19 138/61/19
f 119/62/19 126/62/19 137/62/19 124/62/19
f 138/63/20 121/60/20 122/64/20 133/65/20
f 118/64/21 130/66/21 133/67/21 122/64/21
f 137/62/22 134/68/22 123/68/22 124/62/22
f 120/68/23 119/62/23 124/62/23 123/68/23
f 117/60/24 118/64/24 122/64/24 121/60/24
f 125/69/25 130/70/25 118/64/25 117/60/25
f 129/68/21 120/68/21 123/68/21 134/68/21
f 130/70/26 125/69/26 127/71/26 132/72/26
f 132/72/27 127/71/27 128/62/27 131/68/27
f 131/68/28 128/62/28 126/62/28 129/68/28
f 134/68/29 137/62/29 139/62/29 136/68/29
f 136/68/30 139/62/30 140/73/30 135/74/30
f 135/74/31 140/73/31 138/63/31 133/65/31
f 137/62/19 126/62/19 128/62/19 139/62/19
f 139/62/19 128/62/19 127/71/19 140/73/19
f 140/73/19 127/71/19 125/59/19 138/61/19
f 133/67/21 130/66/21 132/72/21 135/74/21
f 135/74/21 132/72/21 131/68/21 136/68/21
f 136/68/21 131/68/21 129/68/21 134/68/21
f 126/62/32 119/62/32 120/68/32 129/68/32
o tape_0.008
v -0.110525 -0.356874 1.249983
v 0.097894 -0.356874 1.249983
v -0.110525 -0.356108 -1.249982
v -0.110525 -0.373189 -1.248578
v -0.110525 -0.379286 -1.244409
v -0.110525 -0.383168 -1.238599
v -0.110525 -0.384572 -1.231542
v -0.110525 -0.384572 -1.214174
v -0.110525 -0.384572 1.231543
v -0.110525 -0.383168 1.238600
v -0.110525 -0.373189 1.248579
v 0.097894 -0.366133 1.249983
v 0.097894 -0.373189 1.248579
v 0.097894 -0.384572 1.231543
v 0.097894 -0.384572 -1.214174
v 0.097894 -0.384572 -1.231542
v 0.097894 -0.383168 -1.238599
v 0.097894 -0.379286 -1.244409
v 0.097894 -0.356108 -1.249982
v -0.110525 -0.368932 -1.249425
v -0.110525 -0.384572 -1.223860
v -0.110525 -0.379171 1.244582
v -0.110525 -0.366133 1.249983
v 0.097894 -0.379171 1.244582
v 0.097894 -0.383168 1.238600
v 0.097894 -0.384572 -1.223859
v 0.097894 -0.373189 -1.248578
v 0.097894 -0.368932 -1.249425
v -0.110525 -0.000693 1.249983
v 0.097894 -0.000693 1.249983
v -0.110525 -0.346080 1.249983
v 0.097894 -0.097833 1.249983
v 0.097894 -0.108626 1.249983
v 0.097894 -0.119420 1.249983
v 0.097894 -0.346080 1.249983
v -0.110525 -0.074699 -1.249982
v 0.097894 -0.074699 -1.249982
v 0.097894 -0.356874 1.252983
v -0.110525 -0.356108 -1.252982
v -0.110525 -0.369453 -1.252374
v -0.110525 -0.374240 -1.251423
v -0.110525 -0.381598 -1.246142
v -0.110525 -0.387404 -1.231856
v -0.110525 -0.387404 -1.223860
v -0.110525 -0.387404 -1.214174
v 0.097894 -0.387404 -1.214174
v 0.097894 -0.387404 -1.223859
v 0.097894 -0.387404 -1.231858
v 0.097894 -0.385821 -1.239822
v 0.097894 -0.356108 -1.252982
v -0.110525 -0.374243 1.251422
v -0.110525 -0.387404 1.231856
v -0.110525 -0.356874 1.252983
v -0.110525 -0.385819 -1.239825
v -0.110525 -0.385819 1.239826
v -0.110525 -0.381158 1.246802
v 0.097894 -0.387404 1.231856
v 0.097894 -0.381598 -1.246142
v 0.097894 -0.374252 -1.251418
v 0.097894 -0.366396 1.252983
v 0.097894 -0.369451 -1.252374
v 0.097894 -0.000693 1.252983
v -0.110525 -0.000693 1.252983
v 0.097894 -0.346080 1.252983
v -0.110525 -0.346080 1.252983
v 0.097894 -0.097833 1.252983
v 0.097894 -0.108626 1.252983
v 0.097894 -0.119420 1.252983
v -0.110525 -0.074699 -1.252982
v 0.097894 -0.074699 -1.252982
v -0.110525 -0.366396 1.252983
v 0.097894 -0.374243 1.251422
v 0.097894 -0.381158 1.246802
v 0.097894 -0.385819 1.239826
v 0.085508 0.345752 -1.249982
v 0.085508 0.366132 -1.249982
v 0.085508 0.373189 -1.248578
v 0.085508 0.384572 -1.231542
v 0.085508 0.384572 -1.214480
v 0.085508 0.383750 1.235675
v 0.085508 0.383168 1.238600
v 0.085508 0.373189 1.248580
v 0.085508 0.344804 1.249983
v -0.122911 0.344804 1.249983
v -0.122911 0.373189 1.248580
v -0.122911 0.383168 1.238600
v -0.122911 0.383750 1.235675
v -0.122911 0.384572 -1.214479
v -0.122911 0.384572 -1.231542
v -0.122911 0.373189 -1.248578
v -0.122911 0.366132 -1.249982
v -0.122911 0.345752 -1.249982
v 0.085508 0.356321 -1.249982
v 0.085508 0.379171 -1.244581
v 0.085508 0.383168 -1.238599
v 0.085508 0.384572 -1.199483
v 0.085508 0.384572 1.230051
v 0.085508 0.379171 1.244583
v 0.085508 0.366132 1.249983
v 0.085508 0.354933 1.249983
v -0.122911 0.354933 1.249983
v -0.122911 0.366132 1.249983
v -0.122911 0.379171 1.244583
v -0.122911 0.384572 1.230052
v -0.122911 0.384572 -1.199482
v -0.122911 0.383168 -1.238599
v -0.122911 0.379171 -1.244581
v -0.122911 0.356322 -1.249982
v 0.085508 0.098503 1.249983
v -0.122911 0.098503 1.249983
v 0.085508 0.005405 -1.249982
v -0.122911 0.005405 -1.249982
v 0.085508 0.345752 -1.252982
v 0.085508 0.356321 -1.252982
v 0.085508 0.366428 -1.252982
v 0.085508 0.374360 -1.251404
v 0.085508 0.381334 -1.246744
v 0.085508 0.385994 -1.239769
v 0.085508 0.387572 -1.231838
v 0.085508 0.387572 -1.214480
v 0.085508 0.387159 -1.199483
v 0.085508 0.387159 1.230269
v 0.085508 0.386708 1.236185
v 0.085508 0.385663 1.240267
v 0.085508 0.381666 1.246249
v 0.085508 0.373774 1.251522
v 0.085508 0.366428 1.252983
v 0.085508 0.354933 1.252983
v 0.085508 0.344804 1.252983
v -0.122911 0.344804 1.252983
v -0.122911 0.354933 1.252983
v -0.122911 0.366428 1.252983
v -0.122911 0.373774 1.251522
v -0.122911 0.381666 1.246249
v -0.122911 0.385663 1.240267
v -0.122911 0.386708 1.236185
v -0.122911 0.387159 1.230270
v -0.122911 0.387159 -1.199482
v -0.122911 0.387572 -1.214479
v -0.122911 0.387572 -1.231838
v -0.122911 0.385994 -1.239769
v -0.122911 0.381334 -1.246744
v -0.122911 0.374360 -1.251404
v -0.122911 0.366428 -1.252982
v -0.122911 0.356322 -1.252982
v -0.122911 0.345752 -1.252982
v 0.085508 0.098503 1.252983
v -0.122911 0.098503 1.252983
v 0.085508 0.005405 -1.252982
v -0.122911 0.005405 -1.252982
vn -0.0000 -0.0000 1.0000
vn -0.0000 -0.1951 0.9808
vn -0.0000 -0.5556 0.8315
vn -0.0000 -1.0000 -0.0000
vn -0.0000 -0.8315 0.5556
vn -0.0000 0.5832 0.8124
vn -0.0000 -0.1951 -0.9808
vn -0.0000 -0.0434 -0.9991
vn -0.0000 -0.8315 -0.5556
vn -0.0000 0.9808 0.1951
vn -0.0000 -0.9808 0.1951
vn -0.0000 -0.0000 -1.0000
vn -0.0000 0.1951 -0.9808
vn -0.0000 0.5556 -0.8315
vn -0.0000 1.0000 -0.0000
vn -0.0000 0.8315 -0.5556
vn -1.0000 -0.0000 -0.0000
vn -0.0000 0.1952 0.9808
vn -0.0000 0.0455 0.9990
vn -0.0000 0.8315 0.5555
vn -0.0000 0.9808 -0.1951
vn 1.0000 -0.0000 -0.0000
vn -0.0000 -0.5645 -0.8255
vn -0.0000 -0.9808 -0.1951
vn -0.0000 0.1951 0.9808
vn -0.0000 0.5556 0.8315
vn -0.0000 -0.9971 -0.0761
vn -0.0000 0.8315 0.5556
vn -0.0000 0.9895 0.1446
vn -0.0000 -0.5556 -0.8315
vn -0.0000 -0.9996 -0.0275
vn -0.0000 -0.9688 -0.2479
vn -1.0000 -0.0000 0.0001
vn 1.0000 -0.0000 -0.0001
vt 1.000000 0.004950
vt 1.000000 0.000000
vt 0.000000 0.000000
vt 0.000000 0.004950
vt 0.000000 0.014851
vt 0.000000 0.019802
vt 1.000000 0.019802
vt 1.000000 0.014851
vt 0.000000 0.029703
vt 0.000000 0.039604
vt 1.000000 0.039604
vt 1.000000 0.029703
vt 0.000000 0.884285
vt 1.000000 0.884286
vt 1.000000 0.881188
vt 0.000000 0.881188
vt 0.000000 0.044554
vt 0.000000 0.049505
vt 1.000000 0.049505
vt 1.000000 0.044554
vt 1.000000 0.069307
vt 0.000000 0.069307
vt 0.000000 0.910891
vt 1.000000 0.910891
vt 1.000000 0.925743
vt 0.000000 0.925743
vt 0.000000 0.935644
vt 1.000000 0.935644
vt 1.000000 0.930693
vt 0.000000 0.930693
vt 0.000000 0.950495
vt 1.000000 0.950495
vt 0.000000 0.905941
vt 1.000000 0.905941
vt 0.000000 0.891089
vt 1.000000 0.891089
vt 1.000000 0.900990
vt 0.000000 0.900990
vt 1.000000 0.059406
vt 0.000000 0.059406
vt 0.000000 1.000000
vt 1.000000 1.000000
vt 1.000000 0.884263
vt 0.000000 0.884263
vt 0.000000 0.024752
vt 1.000000 0.024752
vt 0.000000 0.034653
vt 1.000000 0.034653
vt 0.000000 0.054455
vt 1.000000 0.054455
vt 1.000000 0.074257
vt 0.000000 0.074257
vt 1.000000 0.876238
vt 0.000000 0.876238
vt 0.000000 0.896040
vt 1.000000 0.896040
vt 1.000000 0.920792
vt 0.000000 0.920792
s 0
f 152/75/33 142/76/33 141/77/33 163/78/33
f 163/79/34 151/80/34 153/81/34 152/82/34
f 151/83/35 162/84/35 164/85/35 153/86/35
f 161/87/36 166/88/36 155/89/36 148/90/36
f 162/91/37 150/92/37 165/93/37 164/94/37
f 155/89/36 154/95/36 149/96/36 148/90/36
f 182/97/38 198/98/38 199/99/38 181/100/38
f 160/101/39 168/102/39 167/103/39 144/104/39
f 160/101/40 143/105/40 159/106/40 168/102/40
f 146/107/41 145/97/41 158/98/41 157/108/41
f 161/87/36 147/109/36 156/110/36 166/88/36
f 189/111/42 194/112/42 183/109/42 188/110/42
f 149/96/43 154/95/43 165/113/43 150/114/43
f 175/76/33 171/77/33 141/77/33 142/76/33
f 171/77/33 175/76/33 174/76/33 173/76/33 172/76/33 170/76/33 169/77/33
f 143/105/44 176/115/44 177/116/44 159/106/44
f 178/76/44 200/75/44 211/78/44 193/77/44
f 211/79/45 200/82/45 212/81/45 191/80/45
f 191/83/46 212/86/46 213/85/46 196/84/46
f 185/90/47 186/89/47 187/117/47 184/118/47
f 196/91/48 213/94/48 214/93/48 195/92/48
f 185/90/47 192/96/47 197/95/47 186/89/47
f 158/98/49 167/99/49 199/99/49 198/98/49
f 181/104/50 199/103/50 201/102/50 180/101/50
f 180/101/51 201/102/51 190/106/51 179/105/51
f 194/107/52 189/108/52 198/98/52 182/97/52
f 184/118/47 187/117/47 188/110/47 183/109/47
f 154/95/49 155/89/49 186/89/49 197/95/49
f 195/114/53 214/113/53 197/95/53 192/96/53
f 178/76/44 193/77/44 205/77/44 204/76/44
f 177/116/36 176/115/36 209/115/36 210/116/36
f 205/77/44 203/77/44 202/76/44 206/76/44 207/76/44 208/76/44 204/76/44
f 179/105/33 190/106/33 210/116/33 209/115/33
f 159/106/49 177/116/49 210/116/49 190/106/49
f 171/77/54 169/77/54 203/77/54 205/77/54
f 150/92/54 162/91/54 196/91/54 195/92/54
f 170/76/49 172/76/49 206/76/49 202/76/49
f 172/76/49 173/76/49 207/76/49 206/76/49
f 173/76/49 174/76/49 208/76/49 207/76/49
f 156/110/49 157/111/49 189/111/49 188/110/49
f 166/88/49 156/110/49 188/110/49 187/117/49
f 146/112/54 147/109/54 183/109/54 194/112/54
f 168/102/49 159/106/49 190/106/49 201/102/49
f 174/76/49 175/76/49 204/76/49 208/76/49
f 160/101/54 144/104/54 181/104/54 180/101/54
f 143/105/54 160/101/54 180/101/54 179/105/54
f 148/90/54 149/96/54 192/96/54 185/90/54
f 161/87/54 148/90/54 185/90/54 184/118/54
f 155/89/49 166/88/49 187/117/49 186/89/49
f 145/97/54 182/97/54 181/100/54 144/100/54
f 169/77/36 170/76/36 202/76/36 203/77/36
f 176/115/54 143/105/54 179/105/54 209/115/54
f 167/99/55 158/98/55 145/97/55 144/100/55
f 147/109/54 161/87/54 184/118/54 183/109/54
f 175/76/49 142/76/49 178/76/49 204/76/49
f 163/78/54 141/77/54 193/77/54 211/78/54
f 147/109/56 146/112/56 157/111/56 156/110/56
f 152/82/49 153/81/49 212/81/49 200/82/49
f 164/94/49 165/93/49 214/93/49 213/94/49
f 141/77/54 171/77/54 205/77/54 193/77/54
f 157/108/49 158/98/49 198/98/49 189/108/49
f 145/97/54 146/107/54 194/107/54 182/97/54
f 149/96/54 150/114/54 195/114/54 192/96/54
f 162/84/54 151/83/54 191/83/54 196/84/54
f 151/80/54 163/79/54 211/79/54 191/80/54
f 142/76/49 152/75/49 200/75/49 178/76/49
f 153/86/49 164/85/49 213/85/49 212/86/49
f 165/113/49 154/95/49 197/95/49 214/113/49
f 167/103/49 168/102/49 201/102/49 199/103/49
f 240/119/33 241/120/33 224/81/33 223/80/33
f 240/119/33 239/121/33 242/122/33 241/120/33
f 239/121/57 222/84/57 225/85/57 242/122/57
f 238/123/58 243/124/58 225/85/58 222/84/58
f 263/96/59 276/95/59 277/125/59 262/126/59
f 238/123/60 221/114/60 226/113/60 243/124/60
f 278/127/36 261/128/36 262/126/36 277/125/36
f 235/129/53 246/130/53 229/110/53 218/109/53
f 258/129/37 281/130/37 282/108/37 257/107/37
f 233/100/44 248/99/44 231/131/44 216/132/44
f 233/100/44 215/104/44 232/103/44 248/99/44
f 229/110/47 228/89/47 219/90/47 218/109/47
f 234/107/46 217/97/46 230/98/46 247/108/46
f 256/97/34 283/98/34 284/131/34 255/132/34
f 236/128/47 219/90/47 228/89/47 245/127/47
f 237/126/61 244/125/61 227/95/61 220/96/61
f 220/96/42 227/95/42 226/113/42 221/114/42
f 223/80/33 224/81/33 250/76/33 249/77/33
f 232/103/44 215/104/44 251/115/44 252/116/44
f 269/80/44 270/81/44 271/120/44 268/119/44
f 268/119/44 271/120/44 272/122/44 267/121/44
f 267/121/39 272/122/39 273/85/39 266/84/39
f 274/124/62 265/123/62 266/84/62 273/85/62
f 231/131/45 230/98/45 217/97/45 216/132/45
f 265/123/41 274/124/41 275/113/41 264/114/41
f 259/109/43 280/110/43 281/130/43 258/129/43
f 246/130/54 247/108/54 282/108/54 281/130/54
f 255/132/33 284/131/33 285/99/33 254/100/33
f 254/100/33 285/99/33 286/103/33 253/104/33
f 260/90/36 279/89/36 280/110/36 259/109/36
f 257/107/35 282/108/35 283/98/35 256/97/35
f 228/89/54 229/110/54 280/110/54 279/89/54
f 261/128/63 278/127/63 279/89/63 260/90/63
f 264/114/64 275/113/64 276/95/64 263/96/64
f 269/80/44 287/77/44 288/76/44 270/81/44
f 289/115/33 253/104/33 286/103/33 290/116/33
f 249/77/47 250/76/47 288/76/47 287/77/47
f 245/127/54 228/89/54 279/89/54 278/127/54
f 230/98/54 231/131/54 284/131/54 283/98/54
f 234/107/49 235/129/49 258/129/49 257/107/49
f 221/114/65 264/114/65 263/96/65 220/96/65
f 247/108/54 230/98/54 283/98/54 282/108/54
f 227/95/66 276/95/66 275/113/66 226/113/66
f 216/132/49 217/97/49 256/97/49 255/132/49
f 221/114/49 238/123/49 265/123/49 264/114/49
f 248/99/54 232/103/54 286/103/54 285/99/54
f 222/84/49 266/84/49 265/123/49 238/123/49
f 222/84/49 239/121/49 267/121/49 266/84/49
f 241/120/54 242/122/54 272/122/54 271/120/54
f 223/80/49 249/77/49 287/77/49 269/80/49
f 224/81/54 241/120/54 271/120/54 270/81/54
f 225/85/54 243/124/54 274/124/54 273/85/54
f 227/95/54 244/125/54 277/125/54 276/95/54
f 233/100/49 216/132/49 255/132/49 254/100/49
f 218/109/49 219/90/49 260/90/49 259/109/49
f 235/129/49 218/109/49 259/109/49 258/129/49
f 235/129/48 234/107/48 247/108/48 246/130/48
f 250/76/54 224/81/54 270/81/54 288/76/54
f 239/121/49 240/119/49 268/119/49 267/121/49
f 244/125/54 245/127/54 278/127/54 277/125/54
f 236/128/49 237/126/49 262/126/49 261/128/49
f 252/116/47 251/115/47 289/115/47 290/116/47
f 236/128/47 245/127/47 244/125/47 237/126/47
f 229/110/54 246/130/54 281/130/54 280/110/54
f 231/131/54 248/99/54 285/99/54 284/131/54
f 237/126/49 220/96/49 263/96/49 262/126/49
f 232/103/54 252/116/54 290/116/54 286/103/54
f 240/119/49 223/80/49 269/80/49 268/119/49
f 242/122/54 225/85/54 273/85/54 272/122/54
f 215/104/49 233/100/49 254/100/49 253/104/49
f 243/124/54 226/113/54 275/113/54 274/124/54
f 217/97/49 234/107/49 257/107/49 256/97/49
f 219/90/49 236/128/49 261/128/49 260/90/49
f 251/115/49 215/104/49 253/104/49 289/115/49
