# Blender 4.2.16 LTS
# www.blender.org
o tape_0.010
v -0.110525 -0.356874 1.249983
v 0.097894 -0.356874 1.249983
v -0.110525 -0.356108 -1.249982
v -0.110525 -0.373189 -1.248578
v -0.110525 -0.379286 -1.244409
v -0.110525 -0.383168 -1.238599
v -0.110525 -0.384572 -1.231542
v -0.110525 -0.389998 -1.214174
v -0.110525 -0.389998 1.231543
v -0.110525 -0.383168 1.238600
v -0.110525 -0.373189 1.248579
v 0.097894 -0.366133 1.249983
v 0.097894 -0.373189 1.248579
v 0.097894 -0.389998 1.231543
v 0.097894 -0.389998 -1.214174
v 0.097894 -0.384572 -1.231542
v 0.097894 -0.383168 -1.238599
v 0.097894 -0.379286 -1.244409
v 0.097894 -0.356108 -1.249982
v -0.110525 -0.368932 -1.249425
v -0.110525 -0.384572 -1.223860
v -0.110525 -0.379171 1.244582
v -0.110525 -0.366133 1.249983
v 0.097894 -0.379171 1.244582
v 0.097894 -0.383168 1.238600
v 0.097894 -0.384572 -1.223859
v 0.097894 -0.373189 -1.248578
v 0.097894 -0.368932 -1.249425
v -0.110525 -0.000693 1.249983
v 0.097894 -0.000693 1.249983
v -0.110525 -0.346080 1.249983
v 0.097894 -0.097833 1.249983
v 0.097894 -0.108626 1.249983
v 0.097894 -0.119420 1.249983
v 0.097894 -0.346080 1.249983
v -0.110525 -0.074699 -1.249982
v 0.097894 -0.074699 -1.249982
v 0.097894 -0.356874 1.252983
v -0.110525 -0.356108 -1.252982
v -0.110525 -0.369453 -1.252374
v -0.110525 -0.374240 -1.251423
v -0.110525 -0.381598 -1.246142
v -0.110525 -0.387404 -1.231856
v -0.110525 -0.387404 -1.223860
v -0.110525 -0.387404 -1.214174
v 0.097894 -0.387404 -1.214174
v 0.097894 -0.387404 -1.223859
v 0.097894 -0.387404 -1.231858
v 0.097894 -0.385821 -1.239822
v 0.097894 -0.356108 -1.252982
v -0.110525 -0.374243 1.251422
v -0.110525 -0.387404 1.231856
v -0.110525 -0.356874 1.252983
v -0.110525 -0.385819 -1.239825
v -0.110525 -0.385819 1.239826
v -0.110525 -0.381158 1.246802
v 0.097894 -0.387404 1.231856
v 0.097894 -0.381598 -1.246142
v 0.097894 -0.374252 -1.251418
v 0.097894 -0.366396 1.252983
v 0.097894 -0.369451 -1.252374
v 0.097894 -0.000693 1.252983
v -0.110525 -0.000693 1.252983
v 0.097894 -0.346080 1.252983
v -0.110525 -0.346080 1.252983
v 0.097894 -0.097833 1.252983
v 0.097894 -0.108626 1.252983
v 0.097894 -0.119420 1.252983
v -0.110525 -0.074699 -1.252982
v 0.097894 -0.074699 -1.252982
v -0.110525 -0.366396 1.252983
v 0.097894 -0.374243 1.251422
v 0.097894 -0.381158 1.246802
v 0.097894 -0.385819 1.239826
v 0.085508 0.345752 -1.249982
v 0.085508 0.366132 -1.249982
v 0.085508 0.373189 -1.248578
v 0.085508 0.384572 -1.231542
v 0.085508 0.384572 -1.214480
v 0.085508 0.383750 1.235675
v 0.085508 0.383168 1.238600
v 0.085508 0.373189 1.248580
v 0.085508 0.344804 1.249983
v -0.122911 0.344804 1.249983
v -0.122911 0.373189 1.248580
v -0.122911 0.383168 1.238600
v -0.122911 0.383750 1.235675
v -0.122911 0.384572 -1.214479
v -0.122911 0.384572 -1.231542
v -0.122911 0.373189 -1.248578
v -0.122911 0.366132 -1.249982
v -0.122911 0.345752 -1.249982
v 0.085508 0.356321 -1.249982
v 0.085508 0.379171 -1.244581
v 0.085508 0.383168 -1.238599
v 0.085508 0.384572 -1.199483
v 0.085508 0.384572 1.230051
v 0.085508 0.379171 1.244583
v 0.085508 0.366132 1.249983
v 0.085508 0.354933 1.249983
v -0.122911 0.354933 1.249983
v -0.122911 0.366132 1.249983
v -0.122911 0.379171 1.244583
v -0.122911 0.384572 1.230052
v -0.122911 0.384572 -1.199482
v -0.122911 0.383168 -1.238599
v -0.122911 0.379171 -1.244581
v -0.122911 0.356322 -1.249982
v 0.085508 0.098503 1.249983
v -0.122911 0.098503 1.249983
v 0.085508 0.005405 -1.249982
v -0.122911 0.005405 -1.249982
v 0.085508 0.345752 -1.252982
v 0.085508 0.356321 -1.252982
v 0.085508 0.366428 -1.252982
v 0.085508 0.374360 -1.251404
v 0.085508 0.381334 -1.246744
v 0.085508 0.385994 -1.239769
v 0.085508 0.387572 -1.231838
v 0.085508 0.387572 -1.214480
v 0.085508 0.387159 -1.199483
v 0.085508 0.387159 1.230269
v 0.085508 0.386708 1.236185
v 0.085508 0.385663 1.240267
v 0.085508 0.381666 1.246249
v 0.085508 0.373774 1.251522
v 0.085508 0.366428 1.252983
v 0.085508 0.354933 1.252983
v 0.085508 0.344804 1.252983
v -0.122911 0.344804 1.252983
v -0.122911 0.354933 1.252983
v -0.122911 0.366428 1.252983
v -0.122911 0.373774 1.251522
v -0.122911 0.381666 1.246249
v -0.122911 0.385663 1.240267
v -0.122911 0.386708 1.236185
v -0.122911 0.387159 1.230270
v -0.122911 0.387159 -1.199482
v -0.122911 0.387572 -1.214479
v -0.122911 0.387572 -1.231838
v -0.122911 0.385994 -1.239769
v -0.122911 0.381334 -1.246744
v -0.122911 0.374360 -1.251404
v -0.122911 0.366428 -1.252982
v -0.122911 0.356322 -1.252982
v -0.122911 0.345752 -1.252982
v 0.085508 0.098503 1.252983
v -0.122911 0.098503 1.252983
v 0.085508 0.005405 -1.252982
v -0.122911 0.005405 -1.252982
vn -0.0000 -0.0000 1.0000
vn -0.0000 -0.1951 0.9808
vn -0.0000 -0.5556 0.8315
vn -0.0000 -0.8724 -0.4888
vn -0.0000 -0.8315 0.5556
vn -0.0000 -1.0000 -0.0000
vn -0.0000 0.5832 0.8124
vn -0.0000 -0.1951 -0.9808
vn -0.0000 -0.0434 -0.9991
vn -0.0000 -0.8315 -0.5556
vn -0.0000 0.9808 0.1951
vn -0.0000 -0.7186 0.6955
vn -0.0000 -0.0000 -1.0000
vn -0.0000 0.1951 -0.9808
vn -0.0000 0.5556 -0.8315
vn -0.0000 1.0000 -0.0000
vn -0.0000 0.8315 -0.5556
vn -1.0000 -0.0000 -0.0000
vn -0.0000 0.1952 0.9808
vn -0.0000 0.0455 0.9990
vn -0.0000 0.8315 0.5555
vn 1.0000 -0.0000 -0.0000
vn -0.0000 0.9808 -0.1951
vn -0.0000 -0.5645 -0.8255
vn -0.0000 -0.9808 -0.1951
vn -0.0000 0.1951 0.9808
vn -0.0000 0.5556 0.8315
vn -0.0000 -0.9971 -0.0761
vn -0.0000 0.8315 0.5556
vn -0.0000 0.9895 0.1446
vn -0.0000 -0.5556 -0.8315
vn -0.0000 -0.9808 0.1951
vn -0.0000 -0.9996 -0.0275
vn -0.0000 -0.9688 -0.2479
vn -1.0000 -0.0000 0.0001
vn 1.0000 -0.0000 -0.0001
vt 1.000000 0.004950
vt 1.000000 0.000000
vt 0.000000 0.000000
vt 0.000000 0.004950
vt 0.000000 0.014851
vt 0.000000 0.019802
vt 1.000000 0.019802
vt 1.000000 0.014851
vt 0.000000 0.029703
vt 0.000000 0.039604
vt 1.000000 0.039604
vt 1.000000 0.029703
vt 0.000000 0.884285
vt 1.000000 0.884286
vt 1.000000 0.881188
vt 0.000000 0.881188
vt 0.000000 0.044554
vt 0.000000 0.049505
vt 1.000000 0.049505
vt 1.000000 0.044554
vt 1.000000 0.069307
vt 0.000000 0.069307
vt 0.000000 0.910891
vt 1.000000 0.910891
vt 1.000000 0.925743
vt 0.000000 0.925743
vt 0.000000 0.935644
vt 1.000000 0.935644
vt 1.000000 0.930693
vt 0.000000 0.930693
vt 0.000000 0.950495
vt 1.000000 0.950495
vt 0.000000 0.905941
vt 1.000000 0.905941
vt 0.000000 0.891089
vt 1.000000 0.891089
vt 1.000000 0.900990
vt 0.000000 0.900990
vt 1.000000 0.059406
vt 0.000000 0.059406
vt 0.000000 1.000000
vt 1.000000 1.000000
vt 1.000000 0.884263
vt 0.000000 0.884263
vt 0.000000 0.024752
vt 1.000000 0.024752
vt 0.000000 0.034653
vt 1.000000 0.034653
vt 0.000000 0.054455
vt 1.000000 0.054455
vt 1.000000 0.074257
vt 0.000000 0.074257
vt 1.000000 0.876238
vt 0.000000 0.876238
vt 0.000000 0.896040
vt 1.000000 0.896040
vt 1.000000 0.920792
vt 0.000000 0.920792
s 0
f 12/1/1 2/2/1 1/3/1 23/4/1
f 23/5/2 11/6/2 13/7/2 12/8/2
f 11/9/3 22/10/3 24/11/3 13/12/3
f 21/13/4 26/14/4 15/15/4 8/16/4
f 22/17/5 10/18/5 25/19/5 24/20/5
f 15/15/6 14/21/6 9/22/6 8/16/6
f 42/23/7 58/24/7 59/25/7 41/26/7
f 20/27/8 28/28/8 27/29/8 4/30/8
f 20/27/9 3/31/9 19/32/9 28/28/9
f 6/33/10 5/23/10 18/24/10 17/34/10
f 21/13/6 7/35/6 16/36/6 26/14/6
f 49/37/11 54/38/11 43/35/11 48/36/11
f 9/22/12 14/21/12 25/39/12 10/40/12
f 35/2/1 31/3/1 1/3/1 2/2/1
f 31/3/1 35/2/1 34/2/1 33/2/1 32/2/1 30/2/1 29/3/1
f 3/31/13 36/41/13 37/42/13 19/32/13
f 38/2/13 60/1/13 71/4/13 53/3/13
f 71/5/14 60/8/14 72/7/14 51/6/14
f 51/9/15 72/12/15 73/11/15 56/10/15
f 45/16/16 46/15/16 47/43/16 44/44/16
f 56/17/17 73/20/17 74/19/17 55/18/17
f 45/16/16 52/22/16 57/21/16 46/15/16
f 18/24/18 27/25/18 59/25/18 58/24/18
f 41/30/19 59/29/19 61/28/19 40/27/19
f 40/27/20 61/28/20 50/32/20 39/31/20
f 54/33/21 49/34/21 58/24/21 42/23/21
f 44/44/16 47/43/16 48/36/16 43/35/16
f 14/21/22 15/15/22 46/15/22 57/21/22
f 55/40/23 74/39/23 57/21/23 52/22/23
f 38/2/13 53/3/13 65/3/13 64/2/13
f 37/42/6 36/41/6 69/41/6 70/42/6
f 65/3/13 63/3/13 62/2/13 66/2/13 67/2/13 68/2/13 64/2/13
f 39/31/1 50/32/1 70/42/1 69/41/1
f 19/32/18 37/42/18 70/42/18 50/32/18
f 31/3/22 29/3/22 63/3/22 65/3/22
f 10/18/22 22/17/22 56/17/22 55/18/22
f 30/2/18 32/2/18 66/2/18 62/2/18
f 32/2/18 33/2/18 67/2/18 66/2/18
f 33/2/18 34/2/18 68/2/18 67/2/18
f 16/36/18 17/37/18 49/37/18 48/36/18
f 26/14/18 16/36/18 48/36/18 47/43/18
f 6/38/22 7/35/22 43/35/22 54/38/22
f 28/28/18 19/32/18 50/32/18 61/28/18
f 34/2/18 35/2/18 64/2/18 68/2/18
f 20/27/22 4/30/22 41/30/22 40/27/22
f 3/31/22 20/27/22 40/27/22 39/31/22
f 8/16/18 9/22/18 52/22/18 45/16/18
f 21/13/22 8/16/22 45/16/22 44/44/22
f 15/15/18 26/14/18 47/43/18 46/15/18
f 5/23/22 42/23/22 41/26/22 4/26/22
f 29/3/6 30/2/6 62/2/6 63/3/6
f 36/41/22 3/31/22 39/31/22 69/41/22
f 27/25/24 18/24/24 5/23/24 4/26/24
f 7/35/22 21/13/22 44/44/22 43/35/22
f 35/2/18 2/2/18 38/2/18 64/2/18
f 23/4/22 1/3/22 53/3/22 71/4/22
f 7/35/25 6/38/25 17/37/25 16/36/25
f 12/8/18 13/7/18 72/7/18 60/8/18
f 24/20/18 25/19/18 74/19/18 73/20/18
f 1/3/22 31/3/22 65/3/22 53/3/22
f 17/34/18 18/24/18 58/24/18 49/34/18
f 5/23/22 6/33/22 54/33/22 42/23/22
f 9/22/22 10/40/22 55/40/22 52/22/22
f 22/10/22 11/9/22 51/9/22 56/10/22
f 11/6/22 23/5/22 71/5/22 51/6/22
f 2/2/18 12/1/18 60/1/18 38/2/18
f 13/12/18 24/11/18 73/11/18 72/12/18
f 25/39/18 14/21/18 57/21/18 74/39/18
f 27/29/18 28/28/18 61/28/18 59/29/18
f 100/45/1 101/46/1 84/7/1 83/6/1
f 100/45/1 99/47/1 102/48/1 101/46/1
f 99/47/26 82/10/26 85/11/26 102/48/26
f 98/49/27 103/50/27 85/11/27 82/10/27
f 123/22/28 136/21/28 137/51/28 122/52/28
f 98/49/29 81/40/29 86/39/29 103/50/29
f 138/53/6 121/54/6 122/52/6 137/51/6
f 95/55/23 106/56/23 89/36/23 78/35/23
f 118/55/5 141/56/5 142/34/5 117/33/5
f 93/26/13 108/25/13 91/57/13 76/58/13
f 93/26/13 75/30/13 92/29/13 108/25/13
f 89/36/16 88/15/16 79/16/16 78/35/16
f 94/33/15 77/23/15 90/24/15 107/34/15
f 116/23/2 143/24/2 144/57/2 115/58/2
f 96/54/16 79/16/16 88/15/16 105/53/16
f 97/52/30 104/51/30 87/21/30 80/22/30
f 80/22/11 87/21/11 86/39/11 81/40/11
f 83/6/1 84/7/1 110/2/1 109/3/1
f 92/29/13 75/30/13 111/41/13 112/42/13
f 129/6/13 130/7/13 131/46/13 128/45/13
f 128/45/13 131/46/13 132/48/13 127/47/13
f 127/47/8 132/48/8 133/11/8 126/10/8
f 134/50/31 125/49/31 126/10/31 133/11/31
f 91/57/14 90/24/14 77/23/14 76/58/14
f 125/49/10 134/50/10 135/39/10 124/40/10
f 119/35/32 140/36/32 141/56/32 118/55/32
f 106/56/22 107/34/22 142/34/22 141/56/22
f 115/58/1 144/57/1 145/25/1 114/26/1
f 114/26/1 145/25/1 146/29/1 113/30/1
f 120/16/6 139/15/6 140/36/6 119/35/6
f 117/33/3 142/34/3 143/24/3 116/23/3
f 88/15/22 89/36/22 140/36/22 139/15/22
f 121/54/33 138/53/33 139/15/33 120/16/33
f 124/40/34 135/39/34 136/21/34 123/22/34
f 129/6/13 147/3/13 148/2/13 130/7/13
f 149/41/1 113/30/1 146/29/1 150/42/1
f 109/3/16 110/2/16 148/2/16 147/3/16
f 105/53/22 88/15/22 139/15/22 138/53/22
f 90/24/22 91/57/22 144/57/22 143/24/22
f 94/33/18 95/55/18 118/55/18 117/33/18
f 81/40/35 124/40/35 123/22/35 80/22/35
f 107/34/22 90/24/22 143/24/22 142/34/22
f 87/21/36 136/21/36 135/39/36 86/39/36
f 76/58/18 77/23/18 116/23/18 115/58/18
f 81/40/18 98/49/18 125/49/18 124/40/18
f 108/25/22 92/29/22 146/29/22 145/25/22
f 82/10/18 126/10/18 125/49/18 98/49/18
f 82/10/18 99/47/18 127/47/18 126/10/18
f 101/46/22 102/48/22 132/48/22 131/46/22
f 83/6/18 109/3/18 147/3/18 129/6/18
f 84/7/22 101/46/22 131/46/22 130/7/22
f 85/11/22 103/50/22 134/50/22 133/11/22
f 87/21/22 104/51/22 137/51/22 136/21/22
f 93/26/18 76/58/18 115/58/18 114/26/18
f 78/35/18 79/16/18 120/16/18 119/35/18
f 95/55/18 78/35/18 119/35/18 118/55/18
f 95/55/17 94/33/17 107/34/17 106/56/17
f 110/2/22 84/7/22 130/7/22 148/2/22
f 99/47/18 100/45/18 128/45/18 127/47/18
f 104/51/22 105/53/22 138/53/22 137/51/22
f 96/54/18 97/52/18 122/52/18 121/54/18
f 112/42/16 111/41/16 149/41/16 150/42/16
f 96/54/16 105/53/16 104/51/16 97/52/16
f 89/36/22 106/56/22 141/56/22 140/36/22
f 91/57/22 108/25/22 145/25/22 144/57/22
f 97/52/18 80/22/18 123/22/18 122/52/18
f 92/29/22 112/42/22 150/42/22 146/29/22
f 100/45/18 83/6/18 129/6/18 128/45/18
f 102/48/22 85/11/22 133/11/22 132/48/22
f 75/30/18 93/26/18 114/26/18 113/30/18
f 103/50/22 86/39/22 135/39/22 134/50/22
f 77/23/18 94/33/18 117/33/18 116/23/18
f 79/16/18 96/54/18 121/54/18 120/16/18
f 111/41/18 75/30/18 113/30/18 149/41/18
o 평면.039
v 0.268520 0.384572 0.716929
v 0.727515 0.037754 0.716929
v 0.268520 0.384572 0.398959
v 0.727515 0.037754 0.398959
v 0.727515 0.366133 0.716929
v 0.714334 0.383526 0.716929
v 0.726111 0.373189 0.716929
v 0.723789 0.376665 0.716929
v 0.719668 0.380806 0.716929
v 0.714334 0.383526 0.398959
v 0.727515 0.366133 0.398959
v 0.719668 0.380806 0.398959
v 0.723789 0.376665 0.398959
v 0.726111 0.373189 0.398959
v 0.727515 0.311403 0.716929
v 0.727515 0.256673 0.716929
v 0.727515 0.201943 0.716929
v 0.727515 0.147214 0.716929
v 0.727515 0.092484 0.716929
v 0.727515 0.092484 0.398959
v 0.727515 0.147214 0.398959
v 0.727515 0.201943 0.398959
v 0.727515 0.256673 0.398959
v 0.727515 0.311403 0.398959
v 0.342822 0.384398 0.716929
v 0.417125 0.384223 0.716929
v 0.491427 0.384049 0.716929
v 0.565729 0.383875 0.716929
v 0.640032 0.383700 0.716929
v 0.640032 0.383700 0.398959
v 0.565729 0.383875 0.398959
v 0.491427 0.384049 0.398959
v 0.417125 0.384223 0.398959
v 0.342822 0.384398 0.398959
v 0.650647 0.383675 0.716929
v 0.661261 0.383651 0.716929
v 0.671876 0.383626 0.716929
v 0.682491 0.383601 0.716929
v 0.693105 0.383576 0.716929
v 0.703720 0.383551 0.716929
v 0.703720 0.383551 0.398959
v 0.693105 0.383576 0.398959
v 0.682490 0.383601 0.398959
v 0.671876 0.383626 0.398959
v 0.661261 0.383651 0.398959
v 0.650647 0.383675 0.398959
v 0.727515 0.319221 0.398959
v 0.727515 0.327040 0.398959
v 0.727515 0.334858 0.398959
v 0.727515 0.342677 0.398959
v 0.727515 0.350495 0.398959
v 0.727515 0.358314 0.398959
v 0.727515 0.358314 0.716929
v 0.727515 0.350495 0.716929
v 0.727515 0.342677 0.716929
v 0.727515 0.334858 0.716929
v 0.727515 0.327040 0.716929
v 0.727515 0.319221 0.716929
v 0.268527 0.387572 0.398959
v 0.268527 0.387572 0.716929
v 0.730515 0.037754 0.716929
v 0.730515 0.037754 0.398959
v 0.728883 0.374337 0.716929
v 0.730501 0.366427 0.716929
v 0.730501 0.366427 0.398959
v 0.728883 0.374337 0.398959
v 0.726110 0.378565 0.716929
v 0.726110 0.378565 0.398959
v 0.721434 0.383231 0.716929
v 0.721434 0.383231 0.398959
v 0.715039 0.386442 0.716929
v 0.715039 0.386442 0.398959
v 0.730515 0.092484 0.716929
v 0.730515 0.358314 0.398959
v 0.703727 0.386551 0.716929
v 0.342829 0.387398 0.398959
v 0.730515 0.319221 0.716929
v 0.730515 0.311403 0.716929
v 0.730515 0.256673 0.716929
v 0.730515 0.201943 0.716929
v 0.730515 0.147214 0.716929
v 0.730515 0.092484 0.398959
v 0.730515 0.147214 0.398959
v 0.730515 0.201943 0.398959
v 0.730515 0.256673 0.398959
v 0.730515 0.311403 0.398959
v 0.342829 0.387398 0.716929
v 0.417132 0.387223 0.716929
v 0.491434 0.387049 0.716929
v 0.565737 0.386875 0.716929
v 0.640039 0.386700 0.716929
v 0.650654 0.386675 0.398959
v 0.640039 0.386700 0.398959
v 0.565736 0.386875 0.398959
v 0.491434 0.387049 0.398959
v 0.417132 0.387223 0.398959
v 0.650654 0.386675 0.716929
v 0.661268 0.386651 0.716929
v 0.671883 0.386626 0.716929
v 0.682498 0.386601 0.716929
v 0.693112 0.386576 0.716929
v 0.703727 0.386551 0.398959
v 0.693112 0.386576 0.398959
v 0.682498 0.386601 0.398959
v 0.671883 0.386626 0.398959
v 0.661268 0.386651 0.398959
v 0.730515 0.319221 0.398959
v 0.730515 0.327040 0.398959
v 0.730515 0.334858 0.398959
v 0.730515 0.342677 0.398959
v 0.730515 0.350495 0.398959
v 0.730515 0.358314 0.716929
v 0.730515 0.350495 0.716929
v 0.730515 0.342677 0.716929
v 0.730515 0.334858 0.716929
v 0.730515 0.327040 0.716929
vn -0.0023 -1.0000 -0.0000
vn -0.9808 -0.1951 -0.0000
vn -0.8315 -0.5556 -0.0000
vn -0.7088 -0.7054 -0.0000
vn -0.4543 -0.8908 -0.0000
vn -1.0000 -0.0000 -0.0000
vn 0.0096 1.0000 -0.0000
vn 0.9797 0.2003 -0.0000
vn 0.8362 0.5484 -0.0000
vn 0.7063 0.7079 -0.0000
vn 0.4488 0.8937 -0.0000
vn 1.0000 -0.0000 -0.0000
vn 0.0023 1.0000 -0.0000
vn 1.0000 0.0018 -0.0000
vn -0.0000 -0.0000 -1.0000
vn -0.0000 -0.0000 1.0000
vn -1.0000 0.0023 -0.0000
vn -0.0000 -1.0000 -0.0000
vt 0.322859 0.000000
vt 0.322859 1.000000
vt 0.330733 1.000000
vt 0.330733 0.000000
vt 0.407526 0.000000
vt 0.383694 0.000000
vt 0.383694 1.000000
vt 0.407526 1.000000
vt 0.353286 0.000000
vt 0.353286 1.000000
vt 0.340642 0.000000
vt 0.340642 1.000000
vt 0.901254 0.000000
vt 0.901254 1.000000
vt 1.000000 1.000000
vt 1.000000 0.000000
vt 0.492165 0.000000
vt 0.492165 1.000000
vt 0.506271 1.000000
vt 0.506271 0.000000
vt 0.605017 1.000000
vt 0.605017 0.000000
vt 0.703763 1.000000
vt 0.703763 0.000000
vt 0.802509 1.000000
vt 0.802509 0.000000
vt 0.000000 0.000000
vt 0.000000 1.000000
vt 0.055122 1.000000
vt 0.055122 0.000000
vt 0.110244 1.000000
vt 0.110244 0.000000
vt 0.165367 1.000000
vt 0.165367 0.000000
vt 0.220489 1.000000
vt 0.220489 0.000000
vt 0.275611 1.000000
vt 0.275611 0.000000
vt 0.283486 1.000000
vt 0.283486 0.000000
vt 0.291360 1.000000
vt 0.291360 0.000000
vt 0.299235 1.000000
vt 0.299235 0.000000
vt 0.307109 1.000000
vt 0.307109 0.000000
vt 0.314984 1.000000
vt 0.314984 0.000000
vt 0.421632 1.000000
vt 0.421632 0.000000
vt 0.435739 1.000000
vt 0.435739 0.000000
vt 0.449845 1.000000
vt 0.449845 0.000000
vt 0.463952 1.000000
vt 0.463952 0.000000
vt 0.478058 1.000000
vt 0.478058 0.000000
s 0
f 190/59/37 191/60/37 160/61/37 156/62/37
f 155/63/38 157/64/38 164/65/38 161/66/38
f 157/64/39 158/67/39 163/68/39 164/65/39
f 158/67/40 159/69/40 162/70/40 163/68/40
f 159/69/41 156/62/41 160/61/41 162/70/41
f 169/71/42 170/72/42 154/73/42 152/74/42
f 208/75/42 197/76/42 174/77/42 165/78/42
f 165/78/42 174/77/42 173/79/42 166/80/42
f 166/80/42 173/79/42 172/81/42 167/82/42
f 167/82/42 172/81/42 171/83/42 168/84/42
f 168/84/42 171/83/42 170/72/42 169/71/42
f 151/85/37 153/86/37 184/87/37 175/88/37
f 175/88/37 184/87/37 183/89/37 176/90/37
f 176/90/37 183/89/37 182/91/37 177/92/37
f 177/92/37 182/91/37 181/93/37 178/94/37
f 178/94/37 181/93/37 180/95/37 179/96/37
f 179/96/37 180/95/37 196/97/37 185/98/37
f 185/98/37 196/97/37 195/99/37 186/100/37
f 186/100/37 195/99/37 194/101/37 187/102/37
f 187/102/37 194/101/37 193/103/37 188/104/37
f 188/104/37 193/103/37 192/105/37 189/106/37
f 189/106/37 192/105/37 191/60/37 190/59/37
f 155/63/42 161/66/42 202/107/42 203/108/42
f 203/108/42 202/107/42 201/109/42 204/110/42
f 204/110/42 201/109/42 200/111/42 205/112/42
f 205/112/42 200/111/42 199/113/42 206/114/42
f 206/114/42 199/113/42 198/115/42 207/116/42
f 207/116/42 198/115/42 197/76/42 208/75/42
f 225/59/43 221/62/43 222/61/43 252/60/43
f 214/63/44 215/66/44 216/65/44 213/64/44
f 213/64/45 216/65/45 218/68/45 217/67/45
f 217/67/46 218/68/46 220/70/46 219/69/46
f 219/69/47 220/70/47 222/61/47 221/62/47
f 223/71/48 211/74/48 212/73/48 232/72/48
f 227/75/48 228/78/48 236/77/48 257/76/48
f 228/78/48 229/80/48 235/79/48 236/77/48
f 229/80/48 230/82/48 234/81/48 235/79/48
f 230/82/48 231/84/48 233/83/48 234/81/48
f 231/84/48 223/71/48 232/72/48 233/83/48
f 210/85/49 237/88/49 226/87/49 209/86/49
f 237/88/49 238/90/49 246/89/49 226/87/49
f 238/90/49 239/92/49 245/91/49 246/89/49
f 239/92/49 240/94/49 244/93/49 245/91/49
f 240/94/49 241/96/49 243/95/49 244/93/49
f 241/96/49 247/98/49 242/97/49 243/95/49
f 247/98/49 248/100/49 256/99/49 242/97/49
f 248/100/49 249/102/49 255/101/49 256/99/49
f 249/102/49 250/104/49 254/103/49 255/101/49
f 250/104/49 251/106/49 253/105/49 254/103/49
f 251/106/49 225/59/49 252/60/49 253/105/49
f 214/63/50 262/108/50 224/107/50 215/66/50
f 262/108/48 263/110/48 261/109/48 224/107/48
f 263/110/48 264/112/48 260/111/48 261/109/48
f 264/112/48 265/114/48 259/113/48 260/111/48
f 265/114/48 266/116/48 258/115/48 259/113/48
f 266/116/48 227/75/48 257/76/48 258/115/48
f 198/115/51 199/113/51 259/113/51 258/115/51
f 183/89/51 184/87/51 226/87/51 246/89/51
f 190/59/52 156/62/52 221/62/52 225/59/52
f 199/113/51 200/111/51 260/111/51 259/113/51
f 184/87/51 153/86/51 209/86/51 226/87/51
f 200/111/51 201/109/51 261/109/51 260/111/51
f 208/75/52 165/78/52 228/78/52 227/75/52
f 201/109/51 202/107/51 224/107/51 261/109/51
f 165/78/52 166/80/52 229/80/52 228/78/52
f 155/63/52 203/108/52 262/108/52 214/63/52
f 166/80/52 167/82/52 230/82/52 229/80/52
f 203/108/52 204/110/52 263/110/52 262/108/52
f 167/82/52 168/84/52 231/84/52 230/82/52
f 204/110/52 205/112/52 264/112/52 263/110/52
f 179/96/52 185/98/52 247/98/52 241/96/52
f 168/84/52 169/71/52 223/71/52 231/84/52
f 205/112/52 206/114/52 265/114/52 264/112/52
f 185/98/52 186/100/52 248/100/52 247/98/52
f 154/73/51 170/72/51 232/72/51 212/73/51
f 206/114/52 207/116/52 266/116/52 265/114/52
f 186/100/52 187/102/52 249/102/52 248/100/52
f 170/72/51 171/83/51 233/83/51 232/72/51
f 207/116/52 208/75/52 227/75/52 266/116/52
f 187/102/52 188/104/52 250/104/52 249/102/52
f 171/83/51 172/81/51 234/81/51 233/83/51
f 153/86/53 151/85/53 210/85/53 209/86/53
f 188/104/52 189/106/52 251/106/52 250/104/52
f 172/81/51 173/79/51 235/79/51 234/81/51
f 152/74/54 154/73/54 212/73/54 211/74/54
f 189/106/52 190/59/52 225/59/52 251/106/52
f 173/79/51 174/77/51 236/77/51 235/79/51
f 157/64/52 155/63/52 214/63/52 213/64/52
f 160/61/51 191/60/51 252/60/51 222/61/51
f 191/60/51 192/105/51 253/105/51 252/60/51
f 161/66/51 164/65/51 216/65/51 215/66/51
f 192/105/51 193/103/51 254/103/51 253/105/51
f 193/103/51 194/101/51 255/101/51 254/103/51
f 158/67/52 157/64/52 213/64/52 217/67/52
f 194/101/51 195/99/51 256/99/51 255/101/51
f 164/65/51 163/68/51 218/68/51 216/65/51
f 195/99/51 196/97/51 242/97/51 256/99/51
f 151/85/52 175/88/52 237/88/52 210/85/52
f 175/88/52 176/90/52 238/90/52 237/88/52
f 159/69/52 158/67/52 217/67/52 219/69/52
f 176/90/52 177/92/52 239/92/52 238/90/52
f 163/68/51 162/70/51 220/70/51 218/68/51
f 177/92/52 178/94/52 240/94/52 239/92/52
f 178/94/52 179/96/52 241/96/52 240/94/52
f 156/62/52 159/69/52 219/69/52 221/62/52
f 196/97/51 180/95/51 243/95/51 242/97/51
f 162/70/51 160/61/51 222/61/51 220/70/51
f 180/95/51 181/93/51 244/93/51 243/95/51
f 174/77/51 197/76/51 257/76/51 236/77/51
f 181/93/51 182/91/51 245/91/51 244/93/51
f 169/71/52 152/74/52 211/74/52 223/71/52
f 197/76/51 198/115/51 258/115/51 257/76/51
f 182/91/51 183/89/51 246/89/51 245/91/51
f 202/107/51 161/66/51 215/66/51 224/107/51
o 평면.040
v -0.506953 0.384572 0.237672
v -0.727515 -0.211593 0.237672
v -0.506953 0.384572 0.555643
v -0.727515 -0.211593 0.555643
v -0.727515 0.366133 0.237672
v -0.714335 0.383526 0.237672
v -0.726111 0.373189 0.237672
v -0.723789 0.376665 0.237672
v -0.719668 0.380806 0.237672
v -0.714334 0.383526 0.555642
v -0.727515 0.366133 0.555642
v -0.719668 0.380806 0.555642
v -0.723789 0.376665 0.555642
v -0.726111 0.373189 0.555642
v -0.727515 0.311403 0.237672
v -0.727515 0.256673 0.237672
v -0.727515 0.201943 0.237672
v -0.727515 0.147214 0.237672
v -0.727515 0.092484 0.237672
v -0.727515 0.092484 0.555643
v -0.727515 0.147214 0.555643
v -0.727515 0.201943 0.555642
v -0.727515 0.256673 0.555642
v -0.727515 0.311403 0.555642
v -0.565730 0.383875 0.237672
v -0.640032 0.383700 0.237672
v -0.640032 0.383700 0.555642
v -0.565729 0.383875 0.555643
v -0.650647 0.383675 0.237672
v -0.661261 0.383651 0.237672
v -0.671876 0.383626 0.237672
v -0.682491 0.383601 0.237672
v -0.693105 0.383576 0.237672
v -0.703720 0.383551 0.237672
v -0.703720 0.383551 0.555642
v -0.693105 0.383576 0.555642
v -0.682491 0.383601 0.555642
v -0.671876 0.383626 0.555642
v -0.661261 0.383651 0.555642
v -0.650647 0.383675 0.555642
v -0.727515 0.319221 0.555642
v -0.727515 0.327040 0.555642
v -0.727515 0.334858 0.555642
v -0.727515 0.342677 0.555642
v -0.727515 0.350495 0.555642
v -0.727515 0.358314 0.555642
v -0.727515 0.358314 0.237672
v -0.727515 0.350495 0.237672
v -0.727515 0.342677 0.237672
v -0.727515 0.334858 0.237672
v -0.727515 0.327040 0.237672
v -0.727515 0.319221 0.237672
v -0.506960 0.387572 0.555643
v -0.506960 0.387572 0.237672
v -0.730515 -0.211593 0.237672
v -0.730515 -0.211593 0.555643
v -0.728883 0.374337 0.237672
v -0.730501 0.366427 0.237672
v -0.730501 0.366427 0.555642
v -0.728883 0.374337 0.555642
v -0.726110 0.378565 0.237672
v -0.726110 0.378565 0.555642
v -0.721435 0.383231 0.237672
v -0.721434 0.383231 0.555642
v -0.715039 0.386442 0.237672
v -0.715039 0.386442 0.555642
v -0.730515 0.092484 0.237672
v -0.730515 0.358314 0.555642
v -0.703727 0.386551 0.237672
v -0.730515 0.319221 0.237672
v -0.730515 0.311403 0.237672
v -0.730515 0.256673 0.237672
v -0.730515 0.201943 0.237672
v -0.730515 0.147214 0.237672
v -0.730515 0.092484 0.555643
v -0.730515 0.147214 0.555643
v -0.730515 0.201943 0.555642
v -0.730515 0.256673 0.555642
v -0.730515 0.311403 0.555642
v -0.565737 0.386875 0.237672
v -0.640039 0.386700 0.237672
v -0.650654 0.386675 0.555642
v -0.640039 0.386700 0.555642
v -0.565736 0.386875 0.555643
v -0.650654 0.386675 0.237672
v -0.661268 0.386651 0.237672
v -0.671883 0.386626 0.237672
v -0.682498 0.386601 0.237672
v -0.693112 0.386576 0.237672
v -0.703727 0.386551 0.555642
v -0.693112 0.386576 0.555642
v -0.682498 0.386601 0.555642
v -0.671883 0.386626 0.555642
v -0.661268 0.386651 0.555642
v -0.730515 0.319221 0.555642
v -0.730515 0.327040 0.555642
v -0.730515 0.334858 0.555642
v -0.730515 0.342677 0.555642
v -0.730515 0.350495 0.555642
v -0.730515 0.358314 0.237672
v -0.730515 0.350495 0.237672
v -0.730515 0.342677 0.237672
v -0.730515 0.334858 0.237672
v -0.730515 0.327040 0.237672
vn 0.0023 -1.0000 -0.0000
vn 0.9808 -0.1951 -0.0000
vn 0.8315 -0.5556 -0.0000
vn 0.7088 -0.7054 -0.0000
vn 0.4543 -0.8908 -0.0000
vn 1.0000 -0.0000 -0.0000
vn 0.0119 -0.9999 -0.0000
vn -0.0096 1.0000 -0.0000
vn -0.9797 0.2003 -0.0000
vn -0.8362 0.5484 -0.0000
vn -0.7063 0.7079 -0.0000
vn -0.4488 0.8937 -0.0000
vn -1.0000 -0.0000 -0.0000
vn -0.0119 0.9999 -0.0000
vn -0.0023 1.0000 -0.0000
vn -1.0000 0.0018 -0.0000
vn -0.0000 -0.0000 1.0000
vn -0.0000 -0.0000 -1.0000
vn 1.0000 0.0023 -0.0000
vn -0.0000 -1.0000 -0.0000
vt 0.322859 0.000000
vt 0.322859 1.000000
vt 0.330733 1.000000
vt 0.330733 0.000000
vt 0.407526 0.000000
vt 0.383694 0.000000
vt 0.383694 1.000000
vt 0.407526 1.000000
vt 0.353286 0.000000
vt 0.353286 1.000000
vt 0.340642 0.000000
vt 0.340642 1.000000
vt 0.901254 0.000000
vt 0.901254 1.000000
vt 1.000000 1.000000
vt 1.000000 0.000000
vt 0.492165 0.000000
vt 0.492165 1.000000
vt 0.506271 1.000000
vt 0.506271 0.000000
vt 0.605017 1.000000
vt 0.605017 0.000000
vt 0.703763 1.000000
vt 0.703763 0.000000
vt 0.802509 1.000000
vt 0.802509 0.000000
vt 0.000000 1.000000
vt 0.220489 1.000000
vt 0.220489 0.000000
vt 0.000000 0.000000
vt 0.275611 1.000000
vt 0.275611 0.000000
vt 0.283486 1.000000
vt 0.283486 0.000000
vt 0.291360 1.000000
vt 0.291360 0.000000
vt 0.299235 1.000000
vt 0.299235 0.000000
vt 0.307109 1.000000
vt 0.307109 0.000000
vt 0.314984 1.000000
vt 0.314984 0.000000
vt 0.421632 1.000000
vt 0.421632 0.000000
vt 0.435739 1.000000
vt 0.435739 0.000000
vt 0.449845 1.000000
vt 0.449845 0.000000
vt 0.463952 1.000000
vt 0.463952 0.000000
vt 0.478058 1.000000
vt 0.478058 0.000000
s 0
f 300/117/55 301/118/55 276/119/55 272/120/55
f 271/121/56 273/122/56 280/123/56 277/124/56
f 273/122/57 274/125/57 279/126/57 280/123/57
f 274/125/58 275/127/58 278/128/58 279/126/58
f 275/127/59 272/120/59 276/119/59 278/128/59
f 285/129/60 286/130/60 270/131/60 268/132/60
f 318/133/60 307/134/60 290/135/60 281/136/60
f 281/136/60 290/135/60 289/137/60 282/138/60
f 282/138/60 289/137/60 288/139/60 283/140/60
f 283/140/60 288/139/60 287/141/60 284/142/60
f 284/142/60 287/141/60 286/130/60 285/129/60
f 269/143/61 294/144/61 291/145/61 267/146/61
f 291/145/55 294/144/55 293/147/55 292/148/55
f 292/148/55 293/147/55 306/149/55 295/150/55
f 295/150/55 306/149/55 305/151/55 296/152/55
f 296/152/55 305/151/55 304/153/55 297/154/55
f 297/154/55 304/153/55 303/155/55 298/156/55
f 298/156/55 303/155/55 302/157/55 299/158/55
f 299/158/55 302/157/55 301/118/55 300/117/55
f 271/121/60 277/124/60 312/159/60 313/160/60
f 313/160/60 312/159/60 311/161/60 314/162/60
f 314/162/60 311/161/60 310/163/60 315/164/60
f 315/164/60 310/163/60 309/165/60 316/166/60
f 316/166/60 309/165/60 308/167/60 317/168/60
f 317/168/60 308/167/60 307/134/60 318/133/60
f 335/117/62 331/120/62 332/119/62 356/118/62
f 324/121/63 325/124/63 326/123/63 323/122/63
f 323/122/64 326/123/64 328/126/64 327/125/64
f 327/125/65 328/126/65 330/128/65 329/127/65
f 329/127/66 330/128/66 332/119/66 331/120/66
f 333/129/67 321/132/67 322/131/67 341/130/67
f 336/133/67 337/136/67 345/135/67 361/134/67
f 337/136/67 338/138/67 344/137/67 345/135/67
f 338/138/67 339/140/67 343/139/67 344/137/67
f 339/140/67 340/142/67 342/141/67 343/139/67
f 340/142/67 333/129/67 341/130/67 342/141/67
f 320/146/68 346/145/68 350/144/68 319/143/68
f 346/145/69 347/148/69 349/147/69 350/144/69
f 347/148/69 351/150/69 348/149/69 349/147/69
f 351/150/69 352/152/69 360/151/69 348/149/69
f 352/152/69 353/154/69 359/153/69 360/151/69
f 353/154/69 354/156/69 358/155/69 359/153/69
f 354/156/69 355/158/69 357/157/69 358/155/69
f 355/158/69 335/117/69 356/118/69 357/157/69
f 324/121/70 366/160/70 334/159/70 325/124/70
f 366/160/67 367/162/67 365/161/67 334/159/67
f 367/162/67 368/164/67 364/163/67 365/161/67
f 368/164/67 369/166/67 363/165/67 364/163/67
f 369/166/67 370/168/67 362/167/67 363/165/67
f 370/168/67 336/133/67 361/134/67 362/167/67
f 308/167/71 309/165/71 363/165/71 362/167/71
f 300/117/72 272/120/72 331/120/72 335/117/72
f 309/165/71 310/163/71 364/163/71 363/165/71
f 310/163/71 311/161/71 365/161/71 364/163/71
f 318/133/72 281/136/72 337/136/72 336/133/72
f 311/161/71 312/159/71 334/159/71 365/161/71
f 281/136/72 282/138/72 338/138/72 337/136/72
f 271/121/72 313/160/72 366/160/72 324/121/72
f 282/138/72 283/140/72 339/140/72 338/138/72
f 313/160/72 314/162/72 367/162/72 366/160/72
f 283/140/72 284/142/72 340/142/72 339/140/72
f 314/162/72 315/164/72 368/164/72 367/162/72
f 292/148/72 295/150/72 351/150/72 347/148/72
f 284/142/72 285/129/72 333/129/72 340/142/72
f 315/164/72 316/166/72 369/166/72 368/164/72
f 295/150/72 296/152/72 352/152/72 351/150/72
f 270/131/71 286/130/71 341/130/71 322/131/71
f 316/166/72 317/168/72 370/168/72 369/166/72
f 296/152/72 297/154/72 353/154/72 352/152/72
f 286/130/71 287/141/71 342/141/71 341/130/71
f 317/168/72 318/133/72 336/133/72 370/168/72
f 297/154/72 298/156/72 354/156/72 353/154/72
f 287/141/71 288/139/71 343/139/71 342/141/71
f 269/143/73 267/146/73 320/146/73 319/143/73
f 298/156/72 299/158/72 355/158/72 354/156/72
f 288/139/71 289/137/71 344/137/71 343/139/71
f 268/132/74 270/131/74 322/131/74 321/132/74
f 299/158/72 300/117/72 335/117/72 355/158/72
f 289/137/71 290/135/71 345/135/71 344/137/71
f 273/122/72 271/121/72 324/121/72 323/122/72
f 276/119/71 301/118/71 356/118/71 332/119/71
f 301/118/71 302/157/71 357/157/71 356/118/71
f 277/124/71 280/123/71 326/123/71 325/124/71
f 302/157/71 303/155/71 358/155/71 357/157/71
f 303/155/71 304/153/71 359/153/71 358/155/71
f 274/125/72 273/122/72 323/122/72 327/125/72
f 304/153/71 305/151/71 360/151/71 359/153/71
f 280/123/71 279/126/71 328/126/71 326/123/71
f 305/151/71 306/149/71 348/149/71 360/151/71
f 275/127/72 274/125/72 327/125/72 329/127/72
f 267/146/72 291/145/72 346/145/72 320/146/72
f 279/126/71 278/128/71 330/128/71 328/126/71
f 269/143/71 319/143/71 350/144/71 294/144/71
f 291/145/72 292/148/72 347/148/72 346/145/72
f 272/120/72 275/127/72 329/127/72 331/120/72
f 306/149/71 293/147/71 349/147/71 348/149/71
f 278/128/71 276/119/71 332/119/71 330/128/71
f 293/147/71 294/144/71 350/144/71 349/147/71
f 290/135/71 307/134/71 361/134/71 345/135/71
f 285/129/72 268/132/72 321/132/72 333/129/72
f 307/134/71 308/167/71 362/167/71 361/134/71
f 312/159/71 277/124/71 325/124/71 334/159/71
o 평면.041
v -0.472822 -0.384572 -0.247901
v 0.727515 -0.037754 -0.247901
v -0.472822 -0.384572 -0.565871
v 0.727515 -0.037754 -0.565871
v 0.727515 -0.366133 -0.247901
v 0.714334 -0.383526 -0.247901
v 0.726111 -0.373189 -0.247901
v 0.723789 -0.376665 -0.247901
v 0.719668 -0.380806 -0.247901
v 0.714334 -0.383526 -0.565871
v 0.727515 -0.366133 -0.565871
v 0.719668 -0.380806 -0.565871
v 0.723789 -0.376665 -0.565871
v 0.726111 -0.373189 -0.565871
v 0.727515 -0.311403 -0.247901
v 0.727515 -0.256673 -0.247901
v 0.727515 -0.201943 -0.247901
v 0.727515 -0.147214 -0.247901
v 0.727515 -0.092484 -0.247901
v 0.727515 -0.092484 -0.565871
v 0.727515 -0.147214 -0.565871
v 0.727515 -0.201943 -0.565871
v 0.727515 -0.256673 -0.565871
v 0.727515 -0.311403 -0.565871
v -0.432307 -0.384563 -0.247901
v 0.187005 -0.384315 -0.247901
v 0.187005 -0.384316 -0.565871
v -0.432307 -0.384563 -0.565871
v 0.682491 -0.383601 -0.247901
v 0.693105 -0.383576 -0.247901
v 0.703720 -0.383551 -0.247901
v 0.703720 -0.383551 -0.565871
v 0.693105 -0.383576 -0.565871
v 0.682490 -0.383601 -0.565871
v 0.727515 -0.319221 -0.565871
v 0.727515 -0.327040 -0.565871
v 0.727515 -0.334858 -0.565871
v 0.727515 -0.342677 -0.565871
v 0.727515 -0.350495 -0.565871
v 0.727515 -0.358314 -0.565871
v 0.727515 -0.358314 -0.247901
v 0.727515 -0.350495 -0.247901
v 0.727515 -0.342677 -0.247901
v 0.727515 -0.334858 -0.247901
v 0.727515 -0.327040 -0.247901
v 0.727515 -0.319221 -0.247901
v -0.472815 -0.393737 -0.565871
v -0.472815 -0.393737 -0.247901
v 0.730515 -0.037754 -0.247901
v 0.730515 -0.037754 -0.565871
v 0.728883 -0.374337 -0.247901
v 0.730501 -0.366427 -0.247901
v 0.730501 -0.366427 -0.565871
v 0.728883 -0.374337 -0.565871
v 0.726110 -0.378565 -0.247901
v 0.726110 -0.378565 -0.565871
v 0.721434 -0.383231 -0.247901
v 0.721434 -0.383231 -0.565871
v 0.715039 -0.386442 -0.247901
v 0.715039 -0.386442 -0.565871
v 0.730515 -0.092484 -0.247901
v 0.730515 -0.358314 -0.565871
v 0.703727 -0.386551 -0.247901
v -0.432300 -0.389264 -0.565871
v 0.730515 -0.319221 -0.247901
v 0.730515 -0.311403 -0.247901
v 0.730515 -0.256673 -0.247901
v 0.730515 -0.201943 -0.247901
v 0.730515 -0.147214 -0.247901
v 0.730515 -0.092484 -0.565871
v 0.730515 -0.147214 -0.565871
v 0.730515 -0.201943 -0.565871
v 0.730515 -0.256673 -0.565871
v 0.730515 -0.311403 -0.565871
v -0.432300 -0.389264 -0.247901
v 0.187012 -0.389016 -0.247901
v 0.187012 -0.389016 -0.565871
v 0.682498 -0.382137 -0.247901
v 0.693112 -0.386576 -0.247901
v 0.703727 -0.386551 -0.565871
v 0.693112 -0.386576 -0.565871
v 0.682498 -0.382137 -0.565871
v 0.730515 -0.319221 -0.565871
v 0.730515 -0.327040 -0.565871
v 0.730515 -0.334858 -0.565871
v 0.730515 -0.342677 -0.565871
v 0.730515 -0.350495 -0.565871
v 0.730515 -0.358314 -0.247901
v 0.730515 -0.350495 -0.247901
v 0.730515 -0.342677 -0.247901
v 0.730515 -0.334858 -0.247901
v 0.730515 -0.327040 -0.247901
vn 0.0023 -1.0000 -0.0000
vn 0.9808 -0.1951 -0.0000
vn 0.8315 -0.5556 -0.0000
vn 0.7088 -0.7054 -0.0000
vn 0.4543 -0.8908 -0.0000
vn 1.0000 -0.0000 -0.0000
vn 0.0002 -1.0000 -0.0000
vn 0.0004 -1.0000 -0.0000
vn 0.0014 -1.0000 -0.0000
vn -0.0096 1.0000 -0.0000
vn -0.9797 0.2003 -0.0000
vn -0.8362 0.5484 -0.0000
vn -0.7063 0.7079 -0.0000
vn -0.4488 0.8937 -0.0000
vn -1.0000 -0.0000 -0.0000
vn -0.1097 0.9940 -0.0000
vn -0.0004 1.0000 -0.0000
vn -0.0139 0.9999 -0.0000
vn 0.3858 0.9226 -0.0000
vn -0.0023 1.0000 -0.0000
vn -1.0000 0.0018 -0.0000
vn -0.0000 -0.0000 1.0000
vn -0.0000 -0.0000 -1.0000
vn 1.0000 0.0008 -0.0000
vn -0.0000 -1.0000 -0.0000
vt 0.322859 0.000000
vt 0.322859 1.000000
vt 0.330733 1.000000
vt 0.330733 0.000000
vt 0.407526 0.000000
vt 0.383694 0.000000
vt 0.383694 1.000000
vt 0.407526 1.000000
vt 0.353286 0.000000
vt 0.353286 1.000000
vt 0.340642 0.000000
vt 0.340642 1.000000
vt 0.901254 0.000000
vt 0.901254 1.000000
vt 1.000000 1.000000
vt 1.000000 0.000000
vt 0.492165 0.000000
vt 0.492165 1.000000
vt 0.506271 1.000000
vt 0.506271 0.000000
vt 0.605017 1.000000
vt 0.605017 0.000000
vt 0.703763 1.000000
vt 0.703763 0.000000
vt 0.802509 1.000000
vt 0.802509 0.000000
vt 0.000000 0.000000
vt 0.000000 1.000000
vt 0.002738 1.000000
vt 0.002738 0.000000
vt 0.081120 1.000000
vt 0.081120 0.000000
vt 0.307109 1.000000
vt 0.307109 0.000000
vt 0.314984 1.000000
vt 0.314984 0.000000
vt 0.421632 1.000000
vt 0.421632 0.000000
vt 0.435739 1.000000
vt 0.435739 0.000000
vt 0.449845 1.000000
vt 0.449845 0.000000
vt 0.463952 1.000000
vt 0.463952 0.000000
vt 0.478058 1.000000
vt 0.478058 0.000000
vt -0.171558 0.000000
vt -0.172650 1.000000
vt 0.033901 0.000000
vt 0.033606 1.000000
s 0
f 401/169/75 402/170/75 380/171/75 376/172/75
f 375/173/76 377/174/76 384/175/76 381/176/76
f 377/174/77 378/177/77 383/178/77 384/175/77
f 378/177/78 379/179/78 382/180/78 383/178/78
f 379/179/79 376/172/79 380/171/79 382/180/79
f 389/181/80 390/182/80 374/183/80 372/184/80
f 416/185/80 405/186/80 394/187/80 385/188/80
f 385/188/80 394/187/80 393/189/80 386/190/80
f 386/190/80 393/189/80 392/191/80 387/192/80
f 387/192/80 392/191/80 391/193/80 388/194/80
f 388/194/80 391/193/80 390/182/80 389/181/80
f 371/195/81 373/196/81 398/197/81 395/198/81
f 395/198/82 398/197/82 397/199/82 396/200/82
f 396/200/83 397/199/83 404/201/83 399/202/83
f 399/202/75 404/201/75 403/203/75 400/204/75
f 400/204/75 403/203/75 402/170/75 401/169/75
f 375/173/80 381/176/80 410/205/80 411/206/80
f 411/206/80 410/205/80 409/207/80 412/208/80
f 412/208/80 409/207/80 408/209/80 413/210/80
f 413/210/80 408/209/80 407/211/80 414/212/80
f 414/212/80 407/211/80 406/213/80 415/214/80
f 415/214/80 406/213/80 405/186/80 416/185/80
f 433/169/84 429/172/84 430/171/84 450/170/84
f 422/173/85 423/176/85 424/175/85 421/174/85
f 421/174/86 424/175/86 426/178/86 425/177/86
f 425/177/87 426/178/87 428/180/87 427/179/87
f 427/179/88 428/180/88 430/171/88 429/172/88
f 431/181/89 419/184/89 420/183/89 440/182/89
f 435/185/89 436/188/89 444/187/89 453/186/89
f 436/188/89 437/190/89 443/189/89 444/187/89
f 437/190/89 438/192/89 442/191/89 443/189/89
f 438/192/89 439/194/89 441/193/89 442/191/89
f 439/194/89 431/181/89 440/182/89 441/193/89
f 418/195/90 445/215/90 434/216/90 417/196/90
f 445/215/91 446/217/91 447/218/91 434/216/91
f 446/217/92 448/202/92 452/201/92 447/218/92
f 448/202/93 449/204/93 451/203/93 452/201/93
f 449/204/94 433/169/94 450/170/94 451/203/94
f 422/173/95 458/206/95 432/205/95 423/176/95
f 458/206/89 459/208/89 457/207/89 432/205/89
f 459/208/89 460/210/89 456/209/89 457/207/89
f 460/210/89 461/212/89 455/211/89 456/209/89
f 461/212/89 462/214/89 454/213/89 455/211/89
f 462/214/89 435/185/89 453/186/89 454/213/89
f 406/213/96 407/211/96 455/211/96 454/213/96
f 397/199/96 398/197/96 434/216/96 447/218/96
f 401/169/97 376/172/97 429/172/97 433/169/97
f 407/211/96 408/209/96 456/209/96 455/211/96
f 398/197/96 373/196/96 417/196/96 434/216/96
f 408/209/96 409/207/96 457/207/96 456/209/96
f 416/185/97 385/188/97 436/188/97 435/185/97
f 409/207/96 410/205/96 432/205/96 457/207/96
f 385/188/97 386/190/97 437/190/97 436/188/97
f 375/173/97 411/206/97 458/206/97 422/173/97
f 386/190/97 387/192/97 438/192/97 437/190/97
f 411/206/97 412/208/97 459/208/97 458/206/97
f 387/192/97 388/194/97 439/194/97 438/192/97
f 412/208/97 413/210/97 460/210/97 459/208/97
f 388/194/97 389/181/97 431/181/97 439/194/97
f 413/210/97 414/212/97 461/212/97 460/210/97
f 374/183/96 390/182/96 440/182/96 420/183/96
f 414/212/97 415/214/97 462/214/97 461/212/97
f 396/200/97 399/202/97 448/202/97 446/217/97
f 390/182/96 391/193/96 441/193/96 440/182/96
f 415/214/97 416/185/97 435/185/97 462/214/97
f 391/193/96 392/191/96 442/191/96 441/193/96
f 373/196/98 371/195/98 418/195/98 417/196/98
f 399/202/97 400/204/97 449/204/97 448/202/97
f 392/191/96 393/189/96 443/189/96 442/191/96
f 372/184/99 374/183/99 420/183/99 419/184/99
f 400/204/97 401/169/97 433/169/97 449/204/97
f 393/189/96 394/187/96 444/187/96 443/189/96
f 377/174/97 375/173/97 422/173/97 421/174/97
f 380/171/96 402/170/96 450/170/96 430/171/96
f 402/170/96 403/203/96 451/203/96 450/170/96
f 381/176/96 384/175/96 424/175/96 423/176/96
f 403/203/96 404/201/96 452/201/96 451/203/96
f 404/201/96 397/199/96 447/218/96 452/201/96
f 378/177/97 377/174/97 421/174/97 425/177/97
f 384/175/96 383/178/96 426/178/96 424/175/96
f 371/195/97 395/198/97 445/215/97 418/195/97
f 395/198/97 396/200/97 446/217/97 445/215/97
f 379/179/97 378/177/97 425/177/97 427/179/97
f 383/178/96 382/180/96 428/180/96 426/178/96
f 376/172/97 379/179/97 427/179/97 429/172/97
f 382/180/96 380/171/96 430/171/96 428/180/96
f 394/187/96 405/186/96 453/186/96 444/187/96
f 389/181/97 372/184/97 419/184/97 431/181/97
f 405/186/96 406/213/96 454/213/96 453/186/96
f 410/205/96 381/176/96 423/176/96 432/205/96
